<svg width="66" height="50" viewBox="0 0 66 50" fill="none" xmlns="http://www.w3.org/2000/svg">
<path d="M30.8629 26.6673C31.613 27.7248 31.9881 29.0032 31.9881 30.4868C31.9881 32.002 31.613 33.233 30.8473 34.1642C30.4253 34.6851 29.7846 35.1586 28.9563 35.5847C30.2221 36.0582 31.1755 36.7842 31.8162 37.7943C32.4569 38.8044 32.7851 40.0197 32.7851 41.456C32.7851 42.9396 32.4257 44.2654 31.6755 45.4333C31.2067 46.2067 30.6285 46.8695 29.9252 47.3904C29.1438 48.0059 28.2061 48.4163 27.1278 48.653C26.0495 48.874 24.893 48.9845 23.6271 48.9845H12.5V24H24.4554C27.456 24.0473 29.597 24.9312 30.8629 26.6673ZM17.4228 28.3403V33.8486H23.4396C24.5179 33.8486 25.3775 33.6434 26.0495 33.233C26.7215 32.8227 27.0497 32.0809 27.0497 31.0392C27.0497 29.8713 26.6121 29.1137 25.7213 28.7349C24.9555 28.4824 23.9866 28.3403 22.7988 28.3403H17.4228ZM17.4228 37.9679V44.6284H23.4396C24.5179 44.6284 25.3462 44.4863 25.9401 44.1864C27.034 43.634 27.5654 42.6081 27.5654 41.0772C27.5654 39.783 27.0497 38.8834 25.987 38.3941C25.3931 38.1258 24.5804 37.9837 23.5177 37.9679H17.4228ZM47.7255 30.8814C49.007 31.4496 50.0541 32.365 50.8824 33.6118C51.6325 34.7009 52.117 35.9793 52.3358 37.4313C52.4608 38.2836 52.5233 39.4989 52.492 41.093H39.177C39.2551 42.9396 39.8802 44.2496 41.0836 44.9914C41.8181 45.4491 42.6933 45.6858 43.7247 45.6858C44.8031 45.6858 45.6939 45.4017 46.3815 44.8335C46.7566 44.5337 47.0848 44.1075 47.3661 43.5551H52.242C52.117 44.6441 51.5231 45.7647 50.476 46.9011C48.8351 48.7004 46.5534 49.6 43.5997 49.6C41.1617 49.6 39.0207 48.8424 37.161 47.3273C35.3012 45.8121 34.3636 43.3499 34.3636 39.9408C34.3636 36.7369 35.2075 34.2905 36.8797 32.5859C38.5675 30.8814 40.7398 30.0291 43.4122 30.0291C45.0219 30.0133 46.4596 30.2974 47.7255 30.8814ZM40.5835 35.0481C39.9115 35.7583 39.4895 36.7053 39.302 37.9048H47.538C47.4442 36.6264 47.0222 35.6478 46.2721 34.985C45.5063 34.3221 44.553 33.9906 43.4278 33.9906C42.2088 33.9906 41.2555 34.3536 40.5835 35.0481ZM48.6632 25.1679H38.0674V28.2772H48.6632V25.1679Z" fill="#FFFEEE"/>
</svg>
