<svg width="47" height="30" viewBox="0 0 47 30" fill="none" xmlns="http://www.w3.org/2000/svg">
<path d="M18.9771 13.5737C18.9771 13.5737 23.4162 13.2442 23.4162 8.0387C23.4162 2.83281 19.7844 0.292236 15.184 0.292236H6.71595H6.46773H0.0458984V29.3835H6.46773H6.71595H15.184C15.184 29.3835 24.4253 29.6754 24.4253 20.7971C24.4253 20.7971 24.8282 13.5737 18.9771 13.5737ZM14.0944 5.46279H15.184C15.184 5.46279 17.2417 5.46279 17.2417 8.4896C17.2417 11.516 16.0316 11.9548 14.659 11.9548H6.71595V5.46279H14.0944ZM14.7563 24.2129H6.71595V16.4387H15.184C15.184 16.4387 18.251 16.3985 18.251 20.4339C18.251 23.8366 15.9603 24.1872 14.7563 24.2129ZM36.7501 7.69382C25.5626 7.69382 25.5725 18.8715 25.5725 18.8715C25.5725 18.8715 24.8049 29.9918 36.7501 29.9918C36.7501 29.9918 46.7044 30.5605 46.7044 22.256H41.5852C41.5852 22.256 41.7559 25.3834 36.921 25.3834C36.921 25.3834 31.8008 25.7265 31.8008 20.3221H46.8751C46.8751 20.3221 48.5247 7.69382 36.7501 7.69382ZM31.7446 16.4387C31.7446 16.4387 32.3696 11.9548 36.8639 11.9548C41.3572 11.9548 41.301 16.4387 41.301 16.4387H31.7446ZM42.4935 5.58837H30.4912V2.00599H42.4935V5.58837Z" fill="#FF6622"/>
</svg>
