<svg width="140" height="140" viewBox="0 0 140 140" fill="none" xmlns="http://www.w3.org/2000/svg">
<path fill-rule="evenodd" clip-rule="evenodd" d="M140 70C140 108.66 108.66 140 70 140C31.34 140 0 108.66 0 70C0 31.34 31.34 0 70 0C108.66 0 140 31.34 140 70ZM91 49C91 60.5983 81.5983 70 70 70C58.4017 70 49 60.5983 49 49C49 37.4021 58.4017 28 70 28C81.5983 28 91 37.4021 91 49ZM70 129.5C82.488 129.5 94.0779 125.653 103.648 119.078C107.876 116.175 109.682 110.643 107.225 106.142C102.13 96.8121 91.6314 91 69.9993 91C48.3678 91 37.8698 96.8114 32.775 106.142C30.3173 110.643 32.1237 116.174 36.3507 119.078C45.9213 125.652 57.5113 129.5 70 129.5Z" fill="#FFFEEE"/>
<circle cx="116.5" cy="72.5" r="11" fill="#FFFEEE" stroke="#FFFEEE"/>
<path fill-rule="evenodd" clip-rule="evenodd" d="M122.413 71.3192H117.319V76.4131C117.319 76.9734 116.864 77.4318 116.3 77.4318C115.737 77.4318 115.282 76.9734 115.282 76.4131V71.3192H110.188C109.624 71.3192 109.169 70.8607 109.169 70.3004C109.169 69.7401 109.624 69.2816 110.188 69.2816H115.282V64.1878C115.282 63.6274 115.737 63.169 116.3 63.169C116.864 63.169 117.319 63.6274 117.319 64.1878V69.2816H122.413C122.976 69.2816 123.432 69.7401 123.432 70.3004C123.432 70.8607 122.976 71.3192 122.413 71.3192ZM116.3 54C107.297 54 100 61.2944 100 70.3004C100 79.3064 107.297 86.6008 116.3 86.6008C125.303 86.6008 132.601 79.3064 132.601 70.3004C132.601 61.2944 125.303 54 116.3 54Z" fill="#FF6622"/>
</svg>
