<svg width="100" height="100" viewBox="0 0 100 100" fill="none" xmlns="http://www.w3.org/2000/svg">
<path d="M99 50C99 77.062 77.062 99 50 99C22.938 99 1 77.062 1 50C1 22.938 22.938 1 50 1C77.062 1 99 22.938 99 50Z" stroke="#FF6622" stroke-width="2"/>
<path d="M54.0994 21.5596C53.3824 19.441 55.27 13.8796 55.27 13.8796C54.7306 13.425 51.8168 22.1555 51.9036 24.1087C51.9905 26.062 42.5285 29.9352 35.3581 32.0872L34.681 35.2374C34.3424 36.8125 32.0338 39.8866 32.0338 39.8866C32.3315 40.9158 32.2963 41.4495 31.526 42.2492C31.526 42.2492 32.5368 45.2129 32.3111 46.2629C32.0854 47.3127 29.0548 45.1371 26.4472 40.3373C26.489 40.5499 25.3164 48.8895 27.6767 49.9357C29.659 50.8142 32.6266 50.0655 32.9911 49.3072C32.9028 49.0164 32.8533 48.8512 32.8533 48.8512C33.0308 48.9942 33.0662 49.1509 32.9911 49.3072C33.6041 51.3261 36.0874 59.4001 36.8572 60.2858C37.738 61.299 43.0001 65.2858 43.0001 65.2858C41.5308 70.1323 40.585 72.9751 37.9933 76.0469C37.1959 76.1301 31.6207 80.1523 29.715 83.3473C29.1492 84.4753 28.8931 84.9759 29.4556 83.8242C29.532 83.6678 29.6188 83.5086 29.715 83.3473C30.7488 81.2865 32.8167 77.1314 32.8167 77.1314C31.1703 80.0325 16.8561 85.4415 21.6389 81.9079C26.4217 78.3744 23.8913 75.2129 23.8913 75.2129C23.8913 75.2129 21.6276 75.7698 19.3783 76.3409C18.7605 76.6979 18.0535 76.9625 17.2476 77.1314C12.5604 78.1133 15.9527 77.2107 19.3783 76.3409C24.7133 73.2583 23.3958 63.2881 21.6389 48.6379C20.1254 40.1484 22.8437 30.7573 23.7614 28.8692C24.6791 26.981 31.9421 14.5434 41.1582 9.26405C48.0597 6.94552 50.6259 5.83012 55.8818 8.65223C59.5404 6.87884 65.9493 11.4323 67.9515 12.656C69.9537 13.8796 77.0246 21.1671 78.7636 26.2529C80.5027 31.3387 81.6561 40.7489 80.6574 46.2184C78.6439 52.2311 76.7396 60.6446 76.504 60.4309C76.2683 60.2172 79.5257 79.139 82.905 80.4823C86.2842 81.8257 75.7914 78.347 74.6199 74.3072C73.3364 73.8136 75.2989 79.2366 77.1077 84.4544C78.9164 89.6722 71.6267 76.8328 71.7322 73.6865C71.468 73.6912 73.1264 83.163 74.5954 85.661C75.2164 86.2084 75.4765 86.4193 75.0812 86.216C74.9236 86.1349 74.7607 85.9421 74.5954 85.661C72.7707 84.0526 67.831 79.5398 67.2499 74.0963C67.2499 74.0963 66.666 78.0904 66.3471 78.2965C66.0281 78.5026 63.8225 76.1929 61.6611 74.5428C57.7398 74.3042 58.3995 71.4232 59.9412 65.9339L67.2499 61.2858L72.0657 50.4138C73.7523 51.6103 75.0789 51.0193 76.9234 49.5354C78.9718 45.1315 79.1429 42.8692 76.9111 39.371C76.4669 39.4211 72.0135 47.2596 71.9553 47.0943C71.8971 46.9291 71.9994 36.6674 71.9994 36.6674C70.191 35.0243 69.2282 33.4963 67.5215 30.7878L67.5023 30.7573C64.9249 29.8293 63.7658 28.6861 61.8791 26.2529C61.7414 27.1814 54.8164 23.6783 54.0994 21.5596Z" fill="#FF7D43" stroke="#FF6622"/>
<path d="M32.7035 48.2697C32.854 47.9901 36.1698 58.0739 36.5971 59.543C37.0244 61.012 44.5125 66.301 49.5314 68.3653C54.5503 70.4295 65.4208 62.3744 66.9577 61.4C68.4947 60.4256 71.7851 50.3745 72.0092 50.6762" stroke="#FF6622"/>
<path d="M68.2062 44.0912C67.1025 43.4404 64.7017 43.1901 63.2185 43.0191" stroke="#FF6622"/>
<path d="M41.9329 43.6621L43.4712 42.8942L40.1518 43.0046C40.1613 44.6898 40.2494 45.5956 41.2558 46.8122C42.7167 47.5354 44.5224 47.4138 44.7249 47.2832C44.9274 47.1527 46.6355 45.6374 45.4952 44.9771C44.355 44.3167 43.1737 44.2095 41.9329 43.6621Z" fill="#FF6622" stroke="#FF6622"/>
<path d="M66.0671 46.3782L67.2668 47.1853" stroke="#FF6622"/>
<path d="M59.0527 47.0672C58.7043 45.8768 59.2416 44.9107 59.2416 44.9107L60.3677 43.5049L61.9428 43.8434C60.7772 43.7766 59.8236 43.6706 64.7176 44.9891C64.833 46.7646 64.6502 47.0872 64.2097 47.3517C64.1419 47.9379 59.4012 48.2575 59.0527 47.0672Z" fill="#FF6622" stroke="#FF6622"/>
<path d="M58.3415 45.2664C60.5936 42.4548 64.232 42.1383 67.9244 45.4037" stroke="#FF6622"/>
<path d="M65.9861 55.6982C66.5973 56.3533 66.8798 56.7988 67.1662 57.8744" stroke="#FF6622"/>
<path d="M64.2417 56.1472C65.0993 56.8303 65.4323 57.3494 65.6279 58.6423" stroke="#FF6622"/>
<path d="M53.5148 60.7021C53.5148 60.7021 49.4561 59.6253 50.1566 59.892C50.8572 60.1587 52.9347 61.0774 53.4421 61.0576C53.9495 61.0379 53.5148 60.7021 53.5148 60.7021Z" stroke="#FF6622"/>
<path d="M52.2249 49.4446C52.592 53.7233 52.2912 54.2598 52.8407 54.2458" stroke="#FF6622"/>
<path d="M47.2396 44.5282C45.0095 42.1264 39.1214 41.41 37.2814 44.8595" stroke="#FF6622"/>
<path d="M32.8625 44.3505L34.5627 44.4141M34.5627 44.4141C34.5627 44.4141 35.4894 40.771 36.1422 40.3829C36.795 39.9948 47.1468 40.6886 47.8613 41.1474C48.5757 41.6062 50.0941 43.1018 50.1942 43.9573C50.2942 44.8128 48.6228 52.4223 47.8112 53.3252C46.9997 54.2282 37.7197 52.6977 37.0052 52.2389C36.2908 51.7801 34.5627 44.4141 34.5627 44.4141Z" stroke="#FF6622"/>
<path d="M72.3045 46.0475L70.9761 46.2424M70.9761 46.2424C70.9761 46.2424 70.4305 42.5231 69.8212 42.0697C69.2119 41.6163 58.8438 41.2378 58.0858 41.6204C57.3278 42.003 55.6631 43.3339 55.4753 44.1745C55.2875 45.0151 56.1645 52.7564 56.8785 53.7384C57.5925 54.7203 66.9809 54.1559 67.7389 53.7733C68.4969 53.3907 70.9761 46.2424 70.9761 46.2424Z" stroke="#FF6622"/>
<path d="M55.394 46.3885C53.4244 44.8111 52.3148 44.4381 50.3174 45.6513L49.9865 46.9524C52.1967 45.6812 53.2104 46.0824 55.5173 48.0822L55.394 46.3885Z" stroke="#FF6622"/>
<path d="M32.7859 45.0828L34.4872 45.0828M34.4872 45.0828C34.4872 45.0828 35.2772 41.4077 35.9151 40.9955C36.553 40.5833 46.9234 40.8899 47.6545 41.3217C48.3856 41.7535 49.9588 43.1913 50.0908 44.0425C50.2227 44.8937 48.8367 52.5603 48.0594 53.4929C47.2821 54.4256 37.9515 53.2428 37.2204 52.811C36.4893 52.3792 34.4872 45.0828 34.4872 45.0828Z" stroke="#FF6622"/>
<path d="M72.2636 45.3053L70.9435 45.5497M70.9435 45.5497C70.9435 45.5497 70.2593 41.8534 69.6335 41.4231C69.0077 40.9928 58.6327 41.0018 57.8895 41.4124C57.1463 41.823 55.5326 43.2151 55.3763 44.0622C55.22 44.9092 56.3855 52.6124 57.1357 53.567C57.8859 54.5216 67.2466 53.6069 67.9898 53.1962C68.733 52.7856 70.9435 45.5497 70.9435 45.5497Z" stroke="#FF6622"/>
<path d="M55.3776 46.2775C53.3504 44.7748 52.2277 44.4435 50.277 45.7305L49.9949 47.043C52.1561 45.6901 53.1841 46.0531 55.5641 47.9655L55.3776 46.2775Z" stroke="#FF6622"/>
<path d="M65.2036 47.8401L65.6158 48.478" stroke="#FF6622"/>
<path d="M38.6873 45.9857L37.4115 46.8101" stroke="#FF6622"/>
<path d="M39.8307 47.0552L39.1364 47.7299" stroke="#FF6622"/>
<path d="M36.5135 43.3211C37.6629 42.9014 38.8785 42.8571 40.2083 42.7421" stroke="#FF6622"/>
<path d="M38.9199 37.173C42.1593 37.2784 47.3235 37.6457 47.5554 37.7777C47.7873 37.9097 47.5165 38.0789 47.4906 38.2796C47.4647 38.4804 42.9764 37.8186 40.0925 37.7326C38.2675 37.497 38.0578 38.2096 36.677 38.5727C35.2962 38.9358 38.9199 37.173 38.9199 37.173Z" stroke="#FF6622"/>
<path d="M65.9506 37.4505C62.7097 37.4771 57.5381 37.7188 57.303 37.8451C57.068 37.9714 57.3346 38.1471 57.3556 38.3484C57.3766 38.5497 61.8797 37.9972 64.7648 37.9814C66.595 37.7902 66.7873 38.5077 68.1588 38.9043C69.5304 39.3008 65.9506 37.4505 65.9506 37.4505Z" stroke="#FF6622"/>
</svg>
