<svg width="40" height="40" viewBox="0 0 40 40" fill="none" xmlns="http://www.w3.org/2000/svg">
<path d="M33.0149 9.71406C30.5461 12.6462 27.3856 14.9181 23.7814 16.2884L23.6266 16.3396C24.0203 17.1428 24.397 17.9552 24.7422 18.7769C24.8734 19.0722 24.9876 19.3675 25.1031 19.6457C26.3198 19.5119 27.7321 19.4357 29.1614 19.4357C31.8691 19.4357 34.5124 19.7087 37.0666 20.2298L36.8132 20.1865C36.787 16.1965 35.3603 12.5464 33.0017 9.69437L33.0241 9.72194L33.0149 9.71406ZM16.0639 4.00206C18.1574 6.82394 20.2324 10.0396 22.0988 13.3877L22.3324 13.8432C25.8919 12.6514 28.8805 10.5475 31.1183 7.80569L31.1459 7.77156C28.1967 5.13869 24.2841 3.52956 19.9975 3.52956C18.6023 3.52956 17.2465 3.70019 15.9497 4.02175L16.0652 3.99812L16.0639 4.00206ZM3.54137 16.8987C9.07881 16.8698 14.4286 16.1243 19.5224 14.7514L19.0853 14.8512C16.9171 11.0462 14.8564 7.87131 12.6383 4.81844L12.8522 5.12819C8.1325 7.387 4.67931 11.6461 3.56368 16.7766L3.544 16.8882L3.54137 16.8987ZM7.51037 31.5856C10.6866 26.4904 15.3985 22.6094 20.9911 20.5501L21.1761 20.491C21.3979 20.4175 21.6184 20.3532 21.8402 20.2941C21.4137 19.3347 20.9543 18.3805 20.4752 17.4407C15.3722 18.9554 9.50931 19.8282 3.44293 19.8282C3.35631 19.8282 3.271 19.8282 3.18568 19.8282H3.19881L3.19225 20.3401C3.19225 20.344 3.19225 20.3479 3.19225 20.3519C3.19225 24.6792 4.83287 28.6232 7.52481 31.5974L7.51168 31.5829L7.51037 31.5856ZM26.5692 35.8171C25.6741 30.9621 24.4298 26.686 22.8115 22.6002L22.9769 23.074L22.8692 23.1068C17.2071 24.8734 12.5976 28.6088 9.74162 33.4953L9.68256 33.6042C12.4979 35.8197 16.0941 37.1571 20.0027 37.1571C22.3718 37.1571 24.6254 36.6662 26.6676 35.7803L26.5587 35.8223L26.5692 35.8171ZM36.598 23.011C34.5361 22.3889 32.167 22.0306 29.7139 22.0306C28.4487 22.0306 27.2057 22.1264 25.9917 22.3101L26.1282 22.2931C27.4144 25.6583 28.5458 29.6811 29.3254 33.8286L29.3963 34.2801C33.1684 31.7076 35.8184 27.7268 36.5914 23.1107L36.6046 23.0123L36.598 23.011ZM20.0001 40C9.13 40 0.317871 31.1879 0.317871 20.3177C0.317871 9.44762 9.13 0.635498 20.0001 0.635498C30.8702 0.635498 39.6824 9.44762 39.6824 20.3177C39.6679 31.1813 30.8637 39.9842 20.0001 40Z" fill="#FF6622"/>
</svg>
