<svg width="42" height="57" viewBox="0 0 42 57" fill="none" xmlns="http://www.w3.org/2000/svg">
<path d="M34.0149 9.71406C31.5461 12.6462 28.3856 14.9181 24.7814 16.2884L24.6266 16.3396C25.0203 17.1428 25.397 17.9552 25.7422 18.7769C25.8734 19.0722 25.9876 19.3675 26.1031 19.6457C27.3198 19.5119 28.7321 19.4357 30.1614 19.4357C32.8691 19.4357 35.5124 19.7087 38.0666 20.2298L37.8132 20.1865C37.787 16.1965 36.3603 12.5464 34.0017 9.69437L34.0241 9.72194L34.0149 9.71406ZM17.0639 4.00206C19.1574 6.82394 21.2324 10.0396 23.0988 13.3877L23.3324 13.8432C26.8919 12.6514 29.8805 10.5475 32.1183 7.80569L32.1459 7.77156C29.1967 5.13869 25.2841 3.52956 20.9975 3.52956C19.6023 3.52956 18.2465 3.70019 16.9497 4.02175L17.0652 3.99812L17.0639 4.00206ZM4.54137 16.8987C10.0788 16.8698 15.4286 16.1243 20.5224 14.7514L20.0853 14.8512C17.9171 11.0462 15.8564 7.87131 13.6383 4.81844L13.8522 5.12819C9.1325 7.387 5.67931 11.6461 4.56368 16.7766L4.544 16.8882L4.54137 16.8987ZM8.51037 31.5856C11.6866 26.4904 16.3985 22.6094 21.9911 20.5501L22.1761 20.491C22.3979 20.4175 22.6184 20.3532 22.8402 20.2941C22.4137 19.3347 21.9543 18.3805 21.4752 17.4407C16.3722 18.9554 10.5093 19.8282 4.44293 19.8282C4.35631 19.8282 4.271 19.8282 4.18568 19.8282H4.19881L4.19225 20.3401C4.19225 20.344 4.19225 20.3479 4.19225 20.3519C4.19225 24.6792 5.83287 28.6232 8.52481 31.5974L8.51168 31.5829L8.51037 31.5856ZM27.5692 35.8171C26.6741 30.9621 25.4298 26.686 23.8115 22.6002L23.9769 23.074L23.8692 23.1068C18.2071 24.8734 13.5976 28.6088 10.7416 33.4953L10.6826 33.6042C13.4979 35.8197 17.0941 37.1571 21.0027 37.1571C23.3718 37.1571 25.6254 36.6662 27.6676 35.7803L27.5587 35.8223L27.5692 35.8171ZM37.598 23.011C35.5361 22.3889 33.167 22.0306 30.7139 22.0306C29.4487 22.0306 28.2057 22.1264 26.9917 22.3101L27.1282 22.2931C28.4144 25.6583 29.5458 29.6811 30.3254 33.8286L30.3963 34.2801C34.1684 31.7076 36.8184 27.7268 37.5914 23.1107L37.6046 23.0123L37.598 23.011ZM21.0001 40C10.13 40 1.31787 31.1879 1.31787 20.3177C1.31787 9.44762 10.13 0.635498 21.0001 0.635498C31.8702 0.635498 40.6824 9.44762 40.6824 20.3177C40.6679 31.1813 31.8637 39.9842 21.0001 40Z" fill="#FF6622"/>
</svg>
