<svg width="31" height="30" viewBox="0 0 31 30" fill="none" xmlns="http://www.w3.org/2000/svg">
<path d="M15.5 2.55005C8.625 2.55005 3 8.16255 3 15.0751C3 21.3251 7.575 26.5126 13.55 27.4501V18.7001H10.375V15.0751H13.55V12.3125C13.55 9.17505 15.4125 7.45005 18.275 7.45005C19.6375 7.45005 21.0625 7.68755 21.0625 7.68755V10.775H19.4875C17.9375 10.775 17.45 11.7375 17.45 12.7251V15.0751H20.925L20.3625 18.7001H17.45V27.4501C20.3955 26.9848 23.0777 25.4819 25.0124 23.2126C26.947 20.9433 28.0068 18.0571 28 15.0751C28 8.16255 22.375 2.55005 15.5 2.55005Z" fill="#FF6622"/>
</svg>
