<svg width="33" height="33" viewBox="0 0 33 33" fill="none" xmlns="http://www.w3.org/2000/svg">
<path fill-rule="evenodd" clip-rule="evenodd" d="M33 16.5C33 25.6126 25.6126 33 16.5 33C7.3873 33 0 25.6126 0 16.5C0 7.3873 7.3873 0 16.5 0C25.6126 0 33 7.3873 33 16.5ZM21.45 11.55C21.45 14.2839 19.2339 16.5 16.5 16.5C13.7661 16.5 11.55 14.2839 11.55 11.55C11.55 8.8162 13.7661 6.6 16.5 6.6C19.2339 6.6 21.45 8.8162 21.45 11.55ZM16.5 30.525C19.4436 30.525 22.1755 29.6182 24.4314 28.0685C25.4278 27.3841 25.8535 26.0802 25.2744 25.0193C24.0735 22.82 21.5988 21.45 16.4998 21.45C11.401 21.45 8.92645 22.8198 7.72553 25.0193C7.14623 26.0802 7.57201 27.3839 8.56838 28.0683C10.8243 29.618 13.5562 30.525 16.5 30.525Z" fill="#FF6622"/>
</svg>
