<svg width="37" height="38" viewBox="0 0 37 38" fill="none" xmlns="http://www.w3.org/2000/svg">
<path d="M2.3667 19.2517L17.3643 28.785L33.9 19.2517V35.385H2.3667V19.2517Z" fill="#FF7D43"/>
<path d="M18.7361 5.68493L34.9999 16.6786L18.7361 28.7786L2.00001 16.3183L18.7361 5.68493Z" fill="#FFC2A7"/>
<path d="M2.05192 17.7847L15.2451 26.6152C16.4212 27.3993 17.0093 27.7912 17.6449 27.9436C18.2065 28.0782 18.792 28.0782 19.3538 27.9436C19.9894 27.7912 20.5775 27.3993 21.7536 26.6152L34.9468 17.7847M15.3798 6.91085L4.74659 13.5887C3.74388 14.2184 3.24254 14.5333 2.8789 14.9589C2.55706 15.3356 2.31489 15.7737 2.16703 16.2466C2 16.7809 2 17.3729 2 18.5569V30.2514C2 32.3049 2 33.3318 2.39965 34.1161C2.75117 34.8059 3.3121 35.3669 4.00204 35.7184C4.78637 36.118 5.81313 36.1181 7.86666 36.1181H29.1333C31.1868 36.1181 32.2137 36.118 32.998 35.7184C33.6879 35.3669 34.2489 34.8059 34.6003 34.1161C35 33.3318 35 32.3049 35 30.2514V18.5569C35 17.3729 35 16.7809 34.833 16.2466C34.685 15.7737 34.443 15.3356 34.1211 14.9589C33.7575 14.5333 33.2561 14.2184 32.2535 13.5887L21.6201 6.91085C20.4884 6.20019 19.9227 5.84487 19.3156 5.70637C18.7787 5.58388 18.2213 5.58388 17.6843 5.70637C17.0773 5.84487 16.5116 6.20019 15.3798 6.91085Z" stroke="#FF6622" stroke-width="3" stroke-linecap="round" stroke-linejoin="round"/>
</svg>
