<svg width="50" height="50" viewBox="0 0 50 50" fill="none" xmlns="http://www.w3.org/2000/svg">
<path fill-rule="evenodd" clip-rule="evenodd" d="M25 37.5C31.9035 37.5 37.5 31.9035 37.5 25C37.5 18.0964 31.9035 12.5 25 12.5C18.0964 12.5 12.5 18.0964 12.5 25C12.5 31.9035 18.0964 37.5 25 37.5ZM25 33.3333C29.6023 33.3333 33.3333 29.6023 33.3333 25C33.3333 20.3976 29.6023 16.6667 25 16.6667C20.3976 16.6667 16.6667 20.3976 16.6667 25C16.6667 29.6023 20.3976 33.3333 25 33.3333Z" fill="#FFFEEE"/>
<path d="M37.5 10.417C36.3494 10.417 35.4167 11.3497 35.4167 12.5003C35.4167 13.6509 36.3494 14.5837 37.5 14.5837C38.6506 14.5837 39.5834 13.6509 39.5834 12.5003C39.5834 11.3497 38.6506 10.417 37.5 10.417Z" fill="#FFFEEE"/>
<path fill-rule="evenodd" clip-rule="evenodd" d="M3.44573 8.90813C2.08331 11.582 2.08331 15.0824 2.08331 22.083V27.9163C2.08331 34.917 2.08331 38.4174 3.44573 41.0911C4.64415 43.4432 6.5564 45.3555 8.90844 46.5538C11.5823 47.9163 15.0827 47.9163 22.0833 47.9163H27.9166C34.9173 47.9163 38.4177 47.9163 41.0914 46.5538C43.4435 45.3555 45.3558 43.4432 46.5541 41.0911C47.9166 38.4174 47.9166 34.917 47.9166 27.9163V22.083C47.9166 15.0824 47.9166 11.582 46.5541 8.90813C45.3558 6.55609 43.4435 4.64384 41.0914 3.44542C38.4177 2.08301 34.9173 2.08301 27.9166 2.08301H22.0833C15.0827 2.08301 11.5823 2.08301 8.90844 3.44542C6.5564 4.64384 4.64415 6.55609 3.44573 8.90813ZM27.9166 6.24967H22.0833C18.5142 6.24967 16.088 6.25292 14.2126 6.40613C12.3859 6.55538 11.4517 6.8259 10.8001 7.15795C9.23204 7.9569 7.95721 9.23174 7.15825 10.7998C6.82621 11.4514 6.55569 12.3856 6.40644 14.2123C6.25323 16.0877 6.24998 18.5139 6.24998 22.083V27.9163C6.24998 31.4855 6.25323 33.9115 6.40644 35.787C6.55569 37.6138 6.82621 38.548 7.15825 39.1997C7.95721 40.7676 9.23204 42.0424 10.8001 42.8413C11.4517 43.1734 12.3859 43.444 14.2126 43.5932C16.088 43.7463 18.5142 43.7497 22.0833 43.7497H27.9166C31.4858 43.7497 33.9119 43.7463 35.7873 43.5932C37.6141 43.444 38.5483 43.1734 39.2 42.8413C40.7679 42.0424 42.0427 40.7676 42.8416 39.1997C43.1737 38.548 43.4444 37.6138 43.5935 35.787C43.7466 33.9115 43.75 31.4855 43.75 27.9163V22.083C43.75 18.5139 43.7466 16.0877 43.5935 14.2123C43.4444 12.3856 43.1737 11.4514 42.8416 10.7998C42.0427 9.23174 40.7679 7.9569 39.2 7.15795C38.5483 6.8259 37.6141 6.55538 35.7873 6.40613C33.9119 6.25292 31.4858 6.24967 27.9166 6.24967Z" fill="#FFFEEE"/>
</svg>
