<svg width="100" height="100" viewBox="0 0 100 100" fill="none" xmlns="http://www.w3.org/2000/svg">
<path d="M99 50C99 77.062 77.062 99 50 99C22.938 99 1 77.062 1 50C1 22.938 22.938 1 50 1C77.062 1 99 22.938 99 50Z" stroke="#FF6622" stroke-width="2"/>
<path d="M49.5099 24.3368C46.3615 26.4466 40.0961 26.6928 39.2135 27.2819C38.331 27.8709 35.9775 37.0006 38.331 39.0621C40.6844 41.1237 31.9383 35.6884 31.859 36.4116C31.7796 37.1347 30.9667 44.8038 30.0939 44.6578C30.0939 44.6578 27.4462 46.7193 30.0939 52.9039C32.7415 59.0886 25.6811 44.6578 24.7986 44.6578C23.916 44.6578 22.151 46.7193 22.151 46.7193C23.4818 56.6197 25.39 59.1299 30.9764 57.9106L33 62.5715L36.2717 65.8622C36.2717 69.8872 37.4452 79.3227 36.2717 79.4095C33.4061 79.6216 20.68 93.2514 24.7986 88.8338C28.9172 84.4162 24.7986 69.9853 24.7986 69.9853C24.7986 69.9853 18.9149 75.2864 17.7382 79.4095C16.5615 83.5326 19.2022 58.9017 19.2022 58.9017C18.1707 63.2581 17.7382 65.8622 17.7382 65.8622C17.7382 65.8622 19.898 44.0585 18.9149 44.6578C18.9149 44.6578 17.9184 44.8003 16.7176 46.6716C15.3297 50.2108 14.4003 52.3265 15.0906 50.2534C15.6278 48.64 16.1922 47.4904 16.7176 46.6716C18.8786 41.161 22.151 32.1996 22.151 30.2269C22.151 26.9874 26.952 15.785 31.859 11.3785C36.766 6.97202 43.4237 5.5057 47.7448 4.89935C52.0659 4.29301 70.9195 10.2888 75.1037 18.7412C79.288 27.1935 80.1049 34.0555 81.2816 34.939C82.4583 35.8225 90.6954 36.4116 85.9885 37.0006C81.2816 37.5896 80.6932 37.0006 80.6932 37.0006C80.6932 37.0006 80.1049 56.1435 81.2816 57.9106C82.4583 59.6776 81.2816 63.8007 84.2234 69.9853C87.1652 76.17 78.6339 60.5611 78.6339 60.5611C78.6339 60.5611 80.6932 85.2997 78.6339 76.759C76.5747 68.2183 75.1037 60.5611 75.1037 59.6776C75.1037 58.7941 76.2805 50.8424 76.5746 48.1918C76.8688 45.5413 71.8677 44.0687 71.8677 44.0687C71.8677 44.0687 66.2783 57.027 68.3375 52.0204C70.3968 47.0138 66.2783 42.0072 66.2783 42.0072C66.2783 42.0072 62.7481 32.8775 61.5714 31.6995C60.3946 30.5214 52.1575 24.9258 50.6866 24.3368C49.8461 24.0002 49.5819 22.2211 49.5099 20.758V24.3368Z" fill="#FF7D43"/>
<path d="M22.151 46.7193C22.151 46.7193 23.916 44.6578 24.7986 44.6578C25.6811 44.6578 32.7415 59.0886 30.0939 52.9039C27.4462 46.7193 30.0939 44.6578 30.0939 44.6578C30.9667 44.8038 31.7796 37.1347 31.859 36.4116C31.9383 35.6884 40.6844 41.1237 38.331 39.0621C35.9775 37.0006 38.331 27.8709 39.2135 27.2819C40.0961 26.6928 46.3615 26.4466 49.5099 24.3368V18.7412C49.5099 18.7412 49.2157 23.7478 50.6866 24.3368C52.1575 24.9258 60.3946 30.5214 61.5714 31.6995C62.7481 32.8775 66.2783 42.0072 66.2783 42.0072C66.2783 42.0072 70.3968 47.0138 68.3375 52.0204C66.2783 57.027 71.8677 44.0687 71.8677 44.0687C71.8677 44.0687 76.8688 45.5413 76.5746 48.1918C76.2805 50.8424 75.1037 58.7941 75.1037 59.6776C75.1037 60.5611 76.5747 68.2183 78.6339 76.759C80.6932 85.2997 78.6339 60.5611 78.6339 60.5611C78.6339 60.5611 87.1652 76.17 84.2234 69.9853C81.2816 63.8007 82.4583 59.6776 81.2816 57.9106C80.1049 56.1435 80.6932 37.0006 80.6932 37.0006C80.6932 37.0006 81.2816 37.5896 85.9885 37.0006C90.6954 36.4116 82.4583 35.8225 81.2816 34.939C80.1049 34.0555 79.288 27.1935 75.1037 18.7412C70.9195 10.2888 52.0659 4.29301 47.7448 4.89935C43.4237 5.5057 36.766 6.97202 31.859 11.3785C26.952 15.785 22.151 26.9874 22.151 30.2269C22.151 33.4665 13.3255 55.5545 15.0906 50.2534C16.8557 44.9523 18.9149 44.6578 18.9149 44.6578C19.898 44.0585 17.7382 65.8622 17.7382 65.8622C17.7382 65.8622 18.1707 63.2581 19.2022 58.9017M22.151 46.7193C22.151 46.7193 20.5053 53.3987 19.2022 58.9017M22.151 46.7193C23.4818 56.6197 25.39 59.1299 30.9764 57.9106L33 62.5715L36.2717 65.8622C36.2717 69.8872 37.4452 79.3227 36.2717 79.4095C33.4061 79.6216 20.68 93.2514 24.7986 88.8338C28.9172 84.4162 24.7986 69.9853 24.7986 69.9853C24.7986 69.9853 18.9149 75.2864 17.7382 79.4095C16.5615 83.5326 19.2022 58.9017 19.2022 58.9017" stroke="#FF6622"/>
<path d="M70.3247 89.6394C72.6971 94.667 64.6343 78.2074 61.4285 67.7545C65.3971 63.6238 66.9715 61.2956 67.9524 57.1079C71.5734 57.3604 73.2466 54.628 76.2003 49.8046L76.2556 49.7144L75.0694 59.1781L76.2556 65.6844C75.1272 72.2373 79.1895 83.5986 79.221 83.7245C79.2525 83.8505 71.4762 75.6217 69.7316 73.0779C69.7316 73.0779 67.9524 84.6118 70.3247 89.6394Z" fill="#FF7D43" stroke="#FF6622"/>
<path d="M54.6634 41.3799C53.0736 41.7071 52.961 40.337 54.6634 38.728C56.3573 37.1269 67.6699 38.46 67.1236 39.9115C67.1378 39.9165 67.1352 39.9237 67.1145 39.9334C67.1178 39.9261 67.1209 39.9188 67.1236 39.9115C66.7728 39.79 56.1913 41.0654 54.6634 41.3799Z" fill="#FF6622" stroke="#FF6622"/>
<path d="M44.4914 42.1013C46.0678 42.3759 46.1234 40.9659 44.385 39.3805C42.6553 37.803 31.586 39.6057 32.1814 41.0739C32.1676 41.0795 32.1704 41.0868 32.1912 41.096C32.1876 41.0886 32.1843 41.0813 32.1814 41.0739C32.5214 40.9358 42.9766 41.8374 44.4914 42.1013Z" fill="#FF6622" stroke="#FF6622"/>
<path d="M56.8572 44.5715C56.8572 49.9049 61.5238 49.9049 61.5238 44.5715H56.8572Z" fill="#FF6622" stroke="#FF6622"/>
<path d="M36.5715 44.5715C36.5715 50.6783 41.9049 49.0713 41.9049 44.5715H36.5715Z" fill="#FF6622" stroke="#FF6622"/>
<path d="M34 47.4286C35.2468 42.7599 43.039 43.3824 44.2857 46.1836" stroke="#FF6622"/>
<path d="M54.8572 46.3419C56.6572 42.8101 64.4572 43.3535 64.4572 47.4286" stroke="#FF6622"/>
<path d="M35.4285 53.4285L35.9999 55.1428" stroke="#FF6622"/>
<path d="M32.8572 53.4285C33.5727 54.4283 33.8497 55.0424 34 56.2856" stroke="#FF6622"/>
<path d="M63.4285 52.8572L64.5713 54.5715" stroke="#FF6622"/>
<path d="M49.059 56.9581C49.4287 55.9837 49.5974 49.0975 49.6981 50.5126L50.2013 57.588C50.2517 58.2955 48.6893 57.9326 49.059 56.9581Z" fill="#FF6622" stroke="#FF6622"/>
<path d="M46.5715 64C49.4066 64.1033 50.5181 64.4328 52.2858 65.1429" stroke="#FF6622"/>
<path d="M31.0826 57.9287C25.0587 58.5371 23.3198 55.3338 22.2856 45.1428" stroke="#FF6622"/>
<path d="M68.5715 57.0886C72.4864 57.5758 74.3144 54.8474 77.1608 46.5715" stroke="#FF6622"/>
<path d="M30.8572 54.8572C30.8572 54.8572 32.2944 60.7005 33.1568 62.4535C34.0191 64.2065 43.505 70.9263 47.2419 71.8028C50.9787 72.6793 48.6791 72.0949 53.5658 72.0949C58.4524 72.0949 63.914 63.9143 65.3512 62.4535C66.7885 60.9927 67.3634 56.6102 67.6508 54.8572" stroke="#FF6622"/>
<path d="M60.5715 53.4285C61.4533 54.401 61.7797 54.9602 61.8572 55.9999" stroke="#FF6622"/>
</svg>
