<svg width="100" height="103" viewBox="0 0 100 103" fill="none" xmlns="http://www.w3.org/2000/svg">
<path d="M99 50C99 77.062 77.062 99 50 99C22.938 99 1 77.062 1 50C1 22.938 22.938 1 50 1C77.062 1 99 22.938 99 50Z" stroke="#FF6622" stroke-width="2"/>
<path d="M53.7729 20.796C53.2793 19.3373 54.4428 15.6556 55.1724 13.6098C53.8475 15.9143 50.621 20.7154 48.6325 25.9364C46.7048 32.5126 38.8526 28.3661 34.1752 38.1449C34.1752 38.1449 31.2837 43.9279 33.8539 48.1045C35.139 50.1928 36.1028 51.3173 37.1943 58.0644C38.1805 59.0279 43.7119 62.6841 43.7119 62.6841C43.7119 62.6841 42.2068 68.6663 40.6005 72.8429C38.6729 82.4812 33.2113 82.8025 36.1028 93.4046C36.1028 93.4046 29.6772 90.8343 26.4644 89.228C23.6445 87.8181 15.5409 81.5174 11.6856 75.0919C11.7513 74.4841 14.5876 72.3713 17.0611 70.4844L20.6816 67.3812C27.0437 52.4936 19.8726 44.1506 26.1431 27.2215C27.0394 25.3774 32.9233 12.832 41.9245 7.67579C48.6651 5.41132 51.1714 4.32193 56.3048 7.07824C59.878 5.3462 66.1375 9.79353 68.093 10.9886C70.0485 12.1837 76.9546 19.3013 78.6531 24.2685C80.3515 29.2357 81.478 38.4265 80.5027 43.7685C78.6531 50.3535 76.6296 53.3797 76.4461 57.6496C76.3264 60.433 76.9674 67.5456 79.4751 73.1394C80.8143 76.1266 82.6859 78.6807 85.2583 79.911C80.1178 85.0514 71.229 93.5814 65.0178 90.5131C68.093 76.0556 53.3809 81.0551 59.8774 64.1684C63.4114 62.2407 66.3029 58.7067 66.9454 57.7428C67.588 56.779 72.1113 50.3535 72.1113 47.866C73.7586 49.0346 75.0542 48.4575 76.8557 47.0081C78.8564 42.7069 78.9149 39.1088 76.8437 37.0808C74.9774 35.2534 72.2993 42.0538 72.4072 40.3939C72.515 38.734 72.0465 34.4402 72.0465 34.4402C70.2737 32.8294 67.6543 32.6832 67.6543 28.6679C65.137 27.7615 64.0049 26.645 62.1622 24.2685C59.5561 25.2938 54.4732 22.8652 53.7729 20.796Z" fill="#FFD8C7"/>
<path d="M20.6816 67.3812C27.0437 52.4936 19.8726 44.1506 26.1431 27.2215C27.0394 25.3774 32.9233 12.832 41.9245 7.67579C48.6651 5.41132 51.1714 4.32193 56.3048 7.07824C59.878 5.3462 66.1375 9.79353 68.093 10.9886C70.0485 12.1837 76.9546 19.3013 78.6531 24.2685C80.3515 29.2357 81.478 38.4265 80.5027 43.7685C78.6531 50.3535 76.6296 53.3797 76.4461 57.6496C76.3264 60.433 76.9674 67.5456 79.4751 73.1394C80.8143 76.1266 82.6859 78.6807 85.2583 79.911C80.1178 85.0514 71.229 93.5814 65.0178 90.5131C68.093 76.0556 53.3809 81.0551 59.8774 64.1684C63.4114 62.2407 66.3029 58.7067 66.9454 57.7428C67.588 56.779 72.1113 50.3535 72.1113 47.866C73.7586 49.0346 75.0542 48.4575 76.8557 47.0081C78.8564 42.7069 78.9149 39.1088 76.8437 37.0808C74.9774 35.2534 72.2993 42.0538 72.4072 40.3939C72.515 38.734 72.0465 34.4402 72.0465 34.4402C70.2737 32.8294 67.6543 32.6832 67.6543 28.6679C65.137 27.7615 64.0049 26.645 62.1622 24.2685C59.5561 25.2938 54.4732 22.8652 53.7729 20.796C53.0727 18.7267 55.7072 12.1837 55.7072 12.1837C56.3845 12.4443 51.3514 18.7978 48.6325 25.9364C46.7048 32.5126 38.8526 28.3661 34.1752 38.1449C34.1752 38.1449 31.2837 43.9279 33.8539 48.1045C35.139 50.1928 36.1028 51.3173 37.1943 58.0644C38.1805 59.0279 43.7119 62.6841 43.7119 62.6841C43.7119 62.6841 42.2068 68.6663 40.6005 72.8429C38.6729 82.4812 33.2113 82.8025 36.1028 93.4046C36.1028 93.4046 29.6772 90.8343 26.4644 89.228C23.6445 87.8181 15.5409 81.5174 11.6856 75.0918M20.6816 67.3812C20.2323 68.4664 11.7995 74.0388 11.6856 75.0918M20.6816 67.3812L11.6856 75.0918M11.6856 75.0918C11.8027 74.3208 14.4568 74.8777 11.6856 75.0918Z" stroke="#FF6622"/>
<path d="M35.1902 62.127C34.9951 62.3224 34.9954 62.639 35.1908 62.8341C35.3863 63.0292 35.7029 63.0289 35.8979 62.8334L35.1902 62.127ZM37.3038 58.1459C36.8115 58.0581 36.8116 58.0581 36.8116 58.058C36.8116 58.058 36.8116 58.058 36.8116 58.058C36.8116 58.058 36.8116 58.058 36.8115 58.0581C36.8115 58.0583 36.8115 58.0587 36.8114 58.0592C36.8111 58.0603 36.8108 58.0622 36.8103 58.0647C36.8094 58.0699 36.8079 58.0779 36.8059 58.0886C36.8018 58.1101 36.7956 58.1425 36.7872 58.1846C36.7703 58.2688 36.7447 58.3915 36.7102 58.5429C36.6411 58.8463 36.537 59.2623 36.3968 59.7135C36.1075 60.6452 35.6959 61.6203 35.1902 62.127L35.8979 62.8334C36.5934 62.1368 37.0616 60.9448 37.3518 60.0101C37.5015 59.5282 37.6121 59.0862 37.6852 58.765C37.7219 58.6041 37.7493 58.4728 37.7677 58.381C37.7769 58.3351 37.7838 58.2991 37.7885 58.2741C37.7909 58.2617 37.7927 58.252 37.7939 58.2452C37.7945 58.2418 37.795 58.2391 37.7954 58.2372C37.7956 58.2363 37.7957 58.2355 37.7958 58.2349C37.7958 58.2346 37.7959 58.2344 37.7959 58.2342C37.7959 58.2341 37.796 58.234 37.796 58.2339C37.796 58.2338 37.796 58.2338 37.3038 58.1459Z" fill="#FF6622"/>
<path d="M43.4918 62.5621C43.1705 62.5621 45.2004 63.3831 50.1022 65.3992C51.5239 65.9839 53.7729 66.4174 59.8771 64.1685" stroke="#FF6622"/>
<path d="M69.5152 41.0365C67.9088 42.0003 64.8596 40.8822 63.4109 40.7152" stroke="#FF6622"/>
<path d="M42.6812 41.2719L44.1836 40.5219L40.9416 40.6298C40.9509 42.2757 41.037 43.1604 42.0199 44.3486C43.4468 45.0549 45.2103 44.9362 45.4081 44.8087C45.6059 44.6811 47.2742 43.2012 46.1605 42.5563C45.0468 41.9113 43.893 41.8066 42.6812 41.2719Z" fill="#FF6622" stroke="#FF6622"/>
<path d="M66.2524 43.9243L67.4242 44.7127" stroke="#FF6622"/>
<path d="M59.4019 44.5977C59.0615 43.4351 59.5864 42.4914 59.5864 42.4914L60.841 41.4491L61.3078 41.4491C61.3208 41.3887 61.7551 41.4222 62.2246 41.4491L61.3078 41.4491C61.2893 41.535 62.126 41.8113 64.9347 42.5681C65.0474 44.3021 64.8689 44.6172 64.4387 44.8756C64.3724 45.4481 59.7422 45.7603 59.4019 44.5977Z" fill="#FF6622" stroke="#FF6622"/>
<path d="M58.7067 42.8389C60.9064 40.0929 64.4599 39.7838 68.0662 42.9731" stroke="#FF6622"/>
<path d="M53.9929 57.9142C53.9929 57.9142 50.0855 56.7563 50.2386 57.1003C51.4791 59.8874 53.9447 58.8307 54.4152 58.3855C54.6917 58.1239 53.9929 57.9142 53.9929 57.9142Z" stroke="#FF6622"/>
<path d="M52.7332 46.9197C53.3346 50.0322 50.8813 51.3173 53.3346 51.609" stroke="#FF6622"/>
<path d="M47.8643 42.1179C45.6861 39.772 39.9353 39.0724 38.1382 42.4414" stroke="#FF6622"/>
<path d="M33.822 41.9445L35.4825 42.0066M35.4825 42.0066C35.4825 42.0066 35.4825 38.9864 37.0252 38.0694C38.5679 37.1524 46.7046 37.5025 48.471 38.8161C49.596 39.4302 50.6518 40.7249 50.7495 41.5604C51.2024 42.9642 49.9174 49.649 48.4222 50.71C44.1345 52.2813 38.3515 50.71 37.8681 49.649C35.4825 47.7834 35.4825 42.0066 35.4825 42.0066Z" stroke="#FF6622"/>
<path d="M72.3446 43.6016L71.1218 43.6016M71.1218 43.6016C71.1218 43.6016 71.1218 40.3939 69.9192 39.7166C69.3241 39.2738 59.1978 38.9041 58.4575 39.2777C56.6643 39.7513 56.0217 40.3939 55.9078 41.7722C55.3792 42.9641 54.7368 48.1045 57.2783 51.1131C59.0792 53.245 67.1451 51.5209 67.8855 51.1472C71.1218 49.7109 71.1218 43.6016 71.1218 43.6016Z" stroke="#FF6622"/>
<path d="M55.3792 43.6064C53.4555 42.0659 52.8209 42.0294 50.8701 43.2143L50.8701 44.5703L50.896 44.5554C53.0296 43.3282 53.1351 43.2675 55.3792 45.2129L55.3792 43.6064Z" stroke="#FF6622"/>
<path d="M33.7471 42.6594L35.4088 42.6594M35.4088 42.6594C35.4088 42.6594 36.1803 39.0699 36.8033 38.6673C37.4263 38.2648 47.555 38.5642 48.269 38.9859C48.9831 39.4077 50.5196 40.812 50.6484 41.6433C50.7773 42.4746 49.4236 49.9625 48.6645 50.8734C47.9053 51.7843 38.7922 50.629 38.0782 50.2073C37.3641 49.7856 35.4088 42.6594 35.4088 42.6594Z" stroke="#FF6622"/>
<path d="M72.3048 42.8765L71.0154 43.1151M71.0154 43.1151C71.0154 43.1151 70.3472 39.505 69.736 39.0847C69.1248 38.6645 58.9917 38.6732 58.2658 39.0743C57.54 39.4754 55.9638 40.835 55.8112 41.6623C55.6585 42.4896 56.7968 50.0132 57.5296 50.9455C58.2623 51.8778 67.4048 50.9844 68.1306 50.5834C68.8565 50.1823 71.0154 43.1151 71.0154 43.1151Z" stroke="#FF6622"/>
<path d="M55.8124 43.8261C53.8325 42.3585 52.7359 42.0349 50.8307 43.2918L50.5552 44.5738C52.666 43.2524 53.67 43.607 55.9945 45.4747L55.8124 43.8261Z" stroke="#FF6622"/>
<path d="M65.4089 45.3525L65.8115 45.9755" stroke="#FF6622"/>
<path d="M39.5112 43.5412L38.2652 44.3464" stroke="#FF6622"/>
<path d="M40.6278 44.5858L39.9497 45.2448" stroke="#FF6622"/>
<path d="M36.4237 40.3939C38.6727 41.679 39.6978 40.4858 40.9966 40.3734" stroke="#FF6622"/>
<path d="M39.7387 34.9339C42.9025 35.0368 47.9463 35.3955 48.1728 35.5245C48.3993 35.6534 48.1348 35.8186 48.1095 36.0146C48.0842 36.2107 43.7005 35.5644 40.8839 35.4804C39.1015 35.2503 38.8967 35.9463 37.5481 36.3009C36.1995 36.6556 39.7387 34.9339 39.7387 34.9339Z" stroke="#FFAB86"/>
<path d="M66.1389 35.2049C62.9736 35.2309 57.9225 35.467 57.693 35.5903C57.4634 35.7137 57.7238 35.8853 57.7443 36.0819C57.7649 36.2785 62.1629 35.7389 64.9808 35.7235C66.7682 35.5367 66.9561 36.2375 68.2956 36.6248C69.6352 37.0121 66.1389 35.2049 66.1389 35.2049Z" stroke="#FFAB86"/>
</svg>
