<svg width="150" height="219" fill="none" xmlns="http://www.w3.org/2000/svg"><path d="M108.087 141c-2.11 1.687-2.836 3.369-2.5 9M105.587 159c-.363 3.751.123 7.267 1.055 10.5m9.445 20.5c.758-3.032-6.528-10.374-9.445-20.5m0 0c10.945 0 31.445 18.5 32.445-5m0 0c-7.324.583-13.675-5.593-10.5-18m10.5 18c3.895-7.812 4.03-11.918 5-22.5m-15.5 4.5c1.605-1.117 1.785-2.303 2-4.5m-2 4.5c-2.256-1.21-3.453-.998-5.5.5-2.253 4.873-2.565 7.722-1.5 13m22.5-18c7-5 3.643-18 2.5-20-1.143-2-11.5-2.375-15-1.5s-5.5 4-.5 5.5c-4.5.5-6.5 4.5-.5 6-4 0-5 3.5 0 5-3.5 1-4.5 3.5 0 5m13.5 0c-4.738 1.694-7.677 1.734-13.5 0" stroke="#F62" stroke-width="2" stroke-linecap="round"/><path d="M130.587 132c1.076.123 1.625.125 2.5 0m-2.5 5c.976.242 1.524.176 2.5 0m-2.5-11c1.164.07 1.744.082 2.5 0M63.087 121c-33 16.5-38.5 95.5-20 97 10 0 13.739-6.698 17-26.5-7.577 9.884-12.55 6.308-15.06-1a32.191 32.191 0 01-1.124-4.287 42.423 42.423 0 01-.435-2.713 47.709 47.709 0 01-.38-6m0 0c-3.463-.728-5.097.537-5.5 16.5m5.5-16.5c1.997-.121 3.387-2.539 6-8m6.619 26.5c3.38-8 4.791-15.422 6.88-27m-24 17c.232 1.087.456 2.072.691 3 .357 1.41.74 2.69 1.209 4 .646 1.803 1.458 3.664 2.6 6" stroke="#F62" stroke-width="2" stroke-linecap="round"/><path d="M50.587 170c-5.378-8.826-7.5-13.5-7.5-23 5.739-4.812 8.168-7.096 10.5-7 2.757.056 4.184.507 4.742 1.5m-.242 4c3.127 1.373 3.872 2.543 3 5.5m-3-5.5c-3.288.532-4.857.994-6.5 2.5m6.5-2.5c.548-1.823.734-3.123.242-4m2.758 9.5c2.92 1.744 3.666 2.891 2 5.5m-2-5.5c-2.31.988-3.457 1.591-4.5 3m4.5-3c4.5 2.5 6.5-9.5-2.758-9.5m4.758 15c2.231 1.19 3.43 1.871 2 4-.64 1.904-.991 2.998-2 3.72m0-7.72c-1.758.928-2.865 1.299-4 3m4-37.5c14.81 9.496 24 6.5 18-3m-22.758 5c17.26 14.19 38.758 14 29.758-2.5" stroke="#F62" stroke-width="2" stroke-linecap="round"/><path d="M65.587 123.5l-3 3m6.5-1l-2.5 4 4 2 2-4.5 4 1-1 5 6 1.5-1-6.5 2.5-1.5 6 5 1-5-7-4" stroke="#F62" stroke-linecap="round"/><path d="M113.587 44.5c-2.5-4-5.5-2.5-8-9.5-2.5 1.5-5.5 1.5-8.5-1-2.18 3.702-4.583 2.71-10-2-2.584 5.285-4.223 7.951-14 2-.618 7.65-1.97 9.53-8.5 3-3.622 11.908-5.838 17.238-12 7.5 2.5 15.5-4.143 21.9-9 16.5 1.591 18.334-7 19.5-13 7 1 7-6.6 13.426-11 9 1.691 1.927 3 3 2 6-3.5 11 9 15 23.5 10.5 4.34 5.97 13 9.5 22 11.5-1.16 2.817-1.767 4.377-2.5 7-.203.2-9.5 5.5-19.5-5.5-2 4-11 3-13-3.5-4.5 2-10.5 0-10.5-5.5-3 0-8-1.5-8-7-4.5 3-8.456-.237-7.5-7-2.5 2-9.5 2.5-1-10 6-8-4-32.5 19.5-41.5 4.5-20.5 14.5-23.5 14-11 6.015-5.773 9.726-8.739 22-9.5 13.881-4.314 26.202-6.055 35.5 0 17.5-1.5 6.5 6.5 5.5 7.5 12.195 5.168 25.5 19.5 15 20.5 1.568 3.392.421 4.23-3 5z" fill="#FF7D43"/><path d="M113.587 44.5c33.24 44.482-45.346 80.185-68.5 49m68.5-49c-2.5-4-5.5-2.5-8-9.5-2.5 1.5-5.5 1.5-8.5-1-2.18 3.702-4.583 2.71-10-2-2.584 5.285-4.223 7.951-14 2-.618 7.65-1.97 9.53-8.5 3-3.622 11.908-5.838 17.238-12 7.5 2.5 15.5-4.143 21.9-9 16.5 1.591 18.334-7 19.5-13 7 1 7-6.6 13.426-11 9 1.691 1.927 3 3 2 6-3.5 11 9 15 23.5 10.5m68.5-49c3.421-.77 4.568-1.608 3-5 10.5-1-2.805-15.332-15-20.5 1-1 12-9-5.5-7.5-9.298-6.055-21.619-4.314-35.5 0-12.274.761-15.985 3.727-22 9.5.5-12.5-9.5-9.5-14 11-23.5 9-13.5 33.5-19.5 41.5-8.5 12.5-1.5 12 1 10-.956 6.763 3 10 7.5 7 0 5.5 5 7 8 7 0 5.5 6 7.5 10.5 5.5 2 6.5 11 7.5 13 3.5 10 11 19.297 5.7 19.5 5.5m16-57.5c1.73 1.328 3.25 2.937 4 4m.5 5c.466-2.195.708-3.287-.5-5m8-2l-8 2m-10-13c-4.977.398-9.625 1.62-11.5 4m33-8.5c3.186-.633 5.082-.789 8.5-1m-19 1c1.031 1.102 1.86 1.661 4 2.5-.361 1.564-.9 2.44-2.5 4m-5 57.5c.433 6.042-.563 9.239-1.5 14 11.769 3.271 17.068 6.528 25 14 6.977 7.774 10.781 10.39 17.5 14m-78-53.5c4.34 5.97 13 9.5 22 11.5-1.16 2.817-1.767 4.377-2.5 7m-30-31c-3.5-2-12 9 5 8m25 23c-1 4.5-1.611 7.155-1.5 9.5" stroke="#F62" stroke-width="2" stroke-linecap="round"/><path d="M43.087 132c2.335 3.895 3.337 6.189 4.5 10.5l6-2.5c-3.199-3.14-4.605-5.07-6-9 1.615-3.206 1.626-5.086 1-8.5-4-16-25-9.5-13 6.5 3.049 2.427 4.678 2.947 7.5 3z" fill="#FFAB86"/><path d="M37.087 124.5c.887 2.091 1.828 3.045 4 4.5m6.5 13.5c-1.163-4.311-2.165-6.605-4.5-10.5-2.822-.053-4.451-.573-7.5-3-12-16 9-22.5 13-6.5.626 3.414.615 5.294-1 8.5 1.395 3.93 2.801 5.86 6 9l-6 2.5zM39.087 186.5l4-2.5M39.587 189.5l4-2M40.087 192.5l4-2.5M41.587 194.5l4-2M50.087 200l-2 3M51.587 200.5l-.5 3" stroke="#F62" stroke-linecap="round"/><path d="M108.587 112c13.5 4.5 20.5 4.5 35 2 2-10.5-33.5-13-35-2z" fill="#FFAB86"/><path d="M108.587 112c13.5 4.5 20.5 4.5 35 2m-35-2c1.5-11 37-8.5 35 2m-35-2c.203 17.308 2.2 25.247 19 27m16-25v6.5M127.587 4c-1.035 3.616-1.813 5.005-3.5 6.5 2.248 2.054 2.863 3.418 3.5 6 .695-2.452 1.381-3.78 3.5-6-2.043-2.336-2.807-3.763-3.5-6.5zM138.655 15.545c-.569 2.18-1.015 3.023-2.005 3.942 1.376 1.199 1.763 2.007 2.181 3.544.381-1.478.773-2.282 2.012-3.642-1.257-1.37-1.735-2.214-2.188-3.844z" stroke="#F62" stroke-width="2" stroke-linecap="round"/></svg>