<svg width="150" height="219" viewBox="0 0 150 219" fill="none" xmlns="http://www.w3.org/2000/svg">
<path d="M138.655 15.5455C138.086 17.7259 137.64 18.5684 136.65 19.4874C138.026 20.6861 138.413 21.4941 138.831 23.0314C139.212 21.5529 139.604 20.7488 140.843 19.389C139.586 18.0189 139.108 17.1751 138.655 15.5455Z" fill="#6B7280" stroke="#374151" stroke-width="2" stroke-linecap="round"/>
<path d="M127.587 4C126.551 7.61648 125.774 9.00505 124.087 10.5C126.335 12.5544 126.95 13.918 127.587 16.5C128.281 14.0476 128.967 12.7208 131.087 10.5C129.043 8.16427 128.279 6.73731 127.587 4Z" fill="#6B7280" stroke="#374151" stroke-width="2" stroke-linecap="round"/>
<path d="M108.587 112C122.087 116.5 129.087 116.5 143.587 114C145.587 103.5 110.087 101 108.587 112Z" fill="#FFC2A7"/>
<path d="M108.587 112C122.087 116.5 129.087 116.5 143.587 114M108.587 112C110.087 101 145.587 103.5 143.587 114M108.587 112C108.79 129.307 110.787 137.246 127.587 139M143.587 114C143.587 114 143.587 123 143.587 120.5" stroke="#374151" stroke-width="2" stroke-linecap="round"/>
<path d="M39.0869 186.5L43.0869 184" stroke="#374151" stroke-linecap="round"/>
<path d="M43.0869 132C45.4218 135.895 46.4242 138.189 47.5869 142.5L53.5869 140C50.3879 136.86 48.9822 134.93 47.5869 131C49.2018 127.794 49.213 125.914 48.5869 122.5C44.587 106.5 23.5869 113 35.5869 129C38.6354 131.427 40.2646 131.947 43.0869 132Z" fill="#6B7280"/>
<path d="M37.087 124.5C37.9739 126.591 38.915 127.545 41.087 129M47.5869 142.5C46.4242 138.189 45.4218 135.895 43.0869 132C40.2646 131.947 38.6354 131.427 35.5869 129C23.5869 113 44.587 106.5 48.5869 122.5C49.213 125.914 49.2018 127.794 47.5869 131C48.9822 134.93 50.3879 136.86 53.5869 140L47.5869 142.5Z" stroke="#374151" stroke-linecap="round"/>
<path d="M113.587 44.4996C111.087 40.4996 108.087 41.9996 105.587 34.9996C103.087 36.4996 100.087 36.4996 97.0872 33.9996C94.9065 37.7013 92.5042 36.7091 87.0872 31.9996C84.5032 37.2851 82.864 39.9509 73.0872 33.9996C72.4687 41.6503 71.1167 43.529 64.5872 36.9996C60.9648 48.9079 58.7487 54.2375 52.5872 44.4996C55.0872 59.9996 48.4441 66.3993 43.5872 60.9996C45.1781 79.3336 36.5872 80.4996 30.5872 67.9996C31.5871 74.9996 23.9876 81.426 19.5872 76.9996C21.2783 78.9269 22.5872 79.9996 21.5872 82.9996C18.0872 93.9996 30.587 97.9996 45.087 93.4996C49.4264 99.4689 58.0871 103 67.0871 105C65.9276 107.817 65.3202 109.376 64.5871 112C64.3844 112.2 55.0872 117.5 45.0872 106.5C43.0872 110.5 34.0872 109.5 32.0872 103C27.5872 105 21.5872 103 21.5872 97.4996C18.5872 97.4996 13.5872 95.9996 13.5872 90.4996C9.08716 93.4996 5.13082 90.2628 6.08713 83.4996C3.58716 85.4996 -3.4129 85.9996 5.08717 73.4996C11.0871 65.4996 1.0871 40.9996 24.5872 31.9996C29.0871 11.4996 39.0871 8.49962 38.5872 20.9996C44.6025 15.2265 48.3133 12.2606 60.5872 11.4996C74.4683 7.18546 86.7891 5.44418 96.0871 11.4996C113.587 9.99964 102.587 17.9996 101.587 18.9996C113.782 24.1676 127.087 38.4996 116.587 39.4996C118.155 42.8918 117.008 43.7291 113.587 44.4996Z" fill="#FF9465"/>
<path d="M113.587 44.4996C146.827 88.982 68.2411 124.685 45.087 93.4996M113.587 44.4996C111.087 40.4996 108.087 41.9996 105.587 34.9996C103.087 36.4996 100.087 36.4996 97.0872 33.9996C94.9065 37.7013 92.5042 36.7091 87.0872 31.9996C84.5032 37.2851 82.864 39.9509 73.0872 33.9996C72.4687 41.6503 71.1167 43.529 64.5872 36.9996C60.9648 48.9079 58.7487 54.2375 52.5872 44.4996C55.0872 59.9996 48.4441 66.3993 43.5872 60.9996C45.1781 79.3336 36.5872 80.4996 30.5872 67.9996C31.5871 74.9996 23.9876 81.426 19.5872 76.9996C21.2783 78.9269 22.5872 79.9996 21.5872 82.9996C18.0872 93.9996 30.587 97.9996 45.087 93.4996M113.587 44.4996C117.008 43.7291 118.155 42.8918 116.587 39.4996C127.087 38.4996 113.782 24.1676 101.587 18.9996C102.587 17.9996 113.587 9.99964 96.0871 11.4996C86.7891 5.44418 74.4683 7.18546 60.5872 11.4996C48.3133 12.2606 44.6025 15.2265 38.5872 20.9996C39.0871 8.49962 29.0871 11.4996 24.5872 31.9996C1.0871 40.9996 11.0871 65.4996 5.08717 73.4996C-3.4129 85.9996 3.58716 85.4996 6.08713 83.4996C5.13082 90.2628 9.08716 93.4996 13.5872 90.4996C13.5872 95.9996 18.5872 97.4996 21.5872 97.4996C21.5872 103 27.5872 105 32.0872 103C34.0872 109.5 43.0872 110.5 45.0872 106.5C55.0872 117.5 64.3844 112.2 64.5871 112M80.5871 54.4996C82.3176 55.8278 83.8374 57.4369 84.5871 58.4996M85.0871 63.4996C85.5526 61.3048 85.7952 60.2124 84.5871 58.4996M92.5871 56.4996L84.5871 58.4996M74.5871 45.4996C69.6097 45.8973 64.9617 47.1196 63.087 49.4996M96.0871 40.9996C99.2733 40.3669 101.169 40.2108 104.587 39.9996M85.5871 40.9996C86.6185 42.1019 87.4464 42.6609 89.5871 43.4996C89.2257 45.0638 88.687 45.9396 87.0871 47.4996M82.0872 105C82.5196 111.042 81.5236 114.239 80.5871 119C92.356 122.27 97.6552 125.528 105.587 133C112.564 140.773 116.368 143.39 123.087 147M45.087 93.4996C49.4264 99.4689 58.0871 103 67.0871 105C65.9276 107.817 65.3202 109.376 64.5871 112M34.5871 80.9996C31.0871 78.9996 22.5871 89.9996 39.5871 88.9996M64.5871 112C63.5872 116.5 62.9757 119.155 63.0872 121.5" stroke="#374151" stroke-width="2" stroke-linecap="round"/>
<path d="M65.5869 123.5L62.5869 126.5M69.0869 125.5L66.5869 129.5L70.5869 131.5L72.5869 127L76.5869 128L75.5869 133L81.5869 134.5L80.5869 128L83.0869 126.5L89.0869 131.5L90.0869 126.5L83.0869 122.5" stroke="#374151" stroke-linecap="round"/>
<path d="M61.0869 151C61.9593 148.043 61.2135 146.873 58.0869 145.5C58.6346 143.677 58.8209 142.377 58.3285 141.5C67.5869 141.5 65.5869 153.5 61.0869 151Z" fill="#6B7280"/>
<path d="M50.5869 170C45.2087 161.174 43.0869 156.5 43.0869 147C48.8254 142.188 51.2551 139.904 53.5869 140C56.344 140.056 57.7711 140.507 58.3285 141.5M58.0869 145.5C61.2135 146.873 61.9593 148.043 61.0869 151M58.0869 145.5C54.7983 146.032 53.2301 146.494 51.5869 148M58.0869 145.5C58.6346 143.677 58.8209 142.377 58.3285 141.5M61.0869 151C64.0065 152.744 64.7529 153.891 63.0869 156.5M61.0869 151C58.776 151.988 57.6294 152.591 56.5869 154M61.0869 151C65.5869 153.5 67.5869 141.5 58.3285 141.5M63.0869 156.5C65.3182 157.69 66.5174 158.371 65.0869 160.5C64.4464 162.404 64.0957 163.498 63.0869 164.22M63.0869 156.5C61.3286 157.428 60.222 157.799 59.0869 159.5M63.0869 122C77.8975 131.496 87.0869 128.5 81.0869 119M58.3285 124C75.5885 138.19 97.0869 138 88.0869 121.5" stroke="#374151" stroke-width="2" stroke-linecap="round"/>
<path d="M63.0869 121C30.0869 137.5 24.5869 216.5 43.0869 218C53.0869 218 56.8253 211.302 60.0869 191.5C52.5094 201.384 47.5368 197.808 45.0263 190.5C44.5709 189.175 44.1966 187.726 43.9024 186.213C43.7301 185.327 43.5853 184.419 43.4678 183.5C43.2133 181.51 43.0869 179.471 43.0869 177.5M43.0869 177.5C39.6251 176.772 37.9907 178.037 37.5869 194M43.0869 177.5C45.0847 177.379 46.4748 174.961 49.0869 169.5M55.7065 196C59.0869 188 60.4983 180.578 62.5869 169M38.5869 186C38.8185 187.087 39.0428 188.072 39.278 189C39.6351 190.41 40.017 191.69 40.4866 193C41.1328 194.803 41.945 196.664 43.0869 199" stroke="#374151" stroke-width="2" stroke-linecap="round"/>
<path d="M130.587 132C131.663 132.123 132.212 132.125 133.087 132M130.587 137C131.563 137.242 132.111 137.176 133.087 137M130.587 126C131.751 126.07 132.331 126.082 133.087 126" stroke="#374151" stroke-width="2" stroke-linecap="round"/>
<path d="M139.087 164.499C131.763 165.082 125.412 158.906 128.587 146.499C130.192 145.382 130.372 144.197 130.587 141.999C126.087 140.499 127.087 137.999 130.587 136.999C125.587 135.499 126.587 131.999 130.587 131.999C124.587 130.499 126.587 126.499 131.087 125.999C126.087 124.499 128.087 121.374 131.587 120.499C135.087 119.624 145.444 119.999 146.587 121.999C147.73 123.999 151.087 136.999 144.087 141.999C143.117 152.581 142.982 156.687 139.087 164.499Z" fill="#FF9465"/>
<path d="M105.587 158.999C105.224 162.75 105.711 166.266 106.642 169.499M116.087 189.999C116.845 186.967 109.559 179.626 106.642 169.499M106.642 169.499C117.587 169.499 138.087 187.999 139.087 164.499M139.087 164.499C131.763 165.082 125.412 158.906 128.587 146.499M139.087 164.499C142.982 156.687 143.117 152.581 144.087 141.999M128.587 146.499C130.192 145.382 130.372 144.197 130.587 141.999M128.587 146.499C126.331 145.289 125.134 145.502 123.087 146.999C120.834 151.872 120.522 154.721 121.587 159.999M144.087 141.999C151.087 136.999 147.73 123.999 146.587 121.999C145.444 119.999 135.087 119.624 131.587 120.499C128.087 121.374 126.087 124.499 131.087 125.999C126.587 126.499 124.587 130.499 130.587 131.999C126.587 131.999 125.587 135.499 130.587 136.999C127.087 137.999 126.087 140.499 130.587 141.999M144.087 141.999C139.349 143.693 136.41 143.734 130.587 141.999" stroke="#374151" stroke-width="2" stroke-linecap="round"/>
<path d="M108.087 141C105.977 142.687 105.251 144.369 105.587 150" stroke="#374151" stroke-width="2" stroke-linecap="round"/>
</svg>
