<svg width="104" height="104" viewBox="0 0 104 104" fill="none" xmlns="http://www.w3.org/2000/svg">
<path d="M79.9036 28.3721C82.6649 33.2083 84.0513 35.1406 86.1015 36.5471" stroke="#FF6622" stroke-width="2"/>
<path d="M30.9108 57.866C30.9466 57.2202 35.0912 54.0589 34.9372 54.3076C35.3726 54.0624 45.0769 53.4578 45.7236 54.074C46.3878 54.707 46.3603 56.8825 46.0322 56.602C45.704 56.3215 34.9037 55.8412 34.9227 56.602C32.6173 57.1921 30.8744 58.5247 30.9108 57.866Z" fill="#FF6622" stroke="#FF6622" stroke-width="2"/>
<path d="M47.4381 54.1084C47.8042 55.8476 47.8965 57.2565 47.4381 57.7417" stroke="#FF6622" stroke-width="2"/>
<path d="M68.1549 52.7092C68.1549 52.7092 72.8138 56.4188 71.3579 55.7641C69.902 55.1095 67.8637 54.8913 67.8637 54.8913C67.9823 54.6609 57.8177 55.9186 57.09 56.2006C56.3623 56.4825 55.7358 54.5202 57.09 53.8002C58.4442 53.0803 68.3108 52.2961 68.1549 52.7092Z" fill="#FF6622" stroke="#FF6622" stroke-width="2"/>
<path d="M65.7369 61.0725C64.0619 60.949 63.1453 60.9251 61.6049 61.0725C61.1527 61.1885 60.7651 61.3203 60.4244 61.4837C60.8266 69.8895 67.6019 67.4629 66.3272 61.2467C66.1418 61.1865 65.9453 61.1293 65.7369 61.0725Z" fill="#FF6622"/>
<path d="M58.0632 64.4031C58.7554 62.8081 59.3623 61.9928 60.4244 61.4837M68.9835 65.0086C68.6522 62.4761 67.8866 61.7534 66.3272 61.2467M60.4244 61.4837C60.7651 61.3203 61.1527 61.1885 61.6049 61.0725C63.1453 60.9251 64.0619 60.949 65.7369 61.0725C65.9453 61.1293 66.1418 61.1865 66.3272 61.2467M60.4244 61.4837C60.8266 69.8895 67.6019 67.4629 66.3272 61.2467" stroke="#FF6622" stroke-width="2"/>
<path d="M29.1393 67.7335C26.4778 64.1028 25.2166 60.9835 23.8268 51.3835C23.8268 51.3835 20.3333 53.7458 19.3997 55.6224C18.466 57.4989 21.2926 43.9424 20.2851 45.328C20.2851 45.328 17.3337 45.9335 17.0385 45.328C16.7434 44.7224 21.1705 37.7585 21.1705 37.7585C21.1705 37.7585 16.9773 36.785 17.924 35.9419C18.8706 35.0988 27.0733 23.2252 27.0733 23.2252C27.0733 23.2252 34.4519 17.7752 35.3373 17.4724C36.2227 17.1696 37.8731 17.3761 39.1741 17.4724C39.1741 17.4724 38.7808 17.4844 39.1741 15.9585C39.5674 14.4326 57.8512 9.3803 57.768 9.90298C55.3582 12.4554 55.0432 13.3879 55.1118 14.7474C64.2461 18.6217 77.3699 22.2833 78.1328 22.3169C78.8957 22.3504 74.0643 24.3994 74.5911 24.7391C79.468 32.2911 85.8065 40.4835 86.987 42.3002C88.1676 44.1169 81.3793 42.3002 81.3793 42.3002C81.3793 42.3002 82.2648 45.3279 82.855 46.5391C83.4453 47.7502 80.1988 46.5391 80.1988 46.5391C80.6175 49.7346 80.8719 50.9209 81.3793 51.3835C82.283 52.8868 84.0356 54.1085 84.6259 55.0168C85.2161 55.9252 79.3133 54.1085 79.3133 54.1085C79.3595 56.0812 79.3822 57.1411 79.3133 57.4391L76.6571 58.6502L73.1154 66.8252C73.4804 59.1036 73.3642 54.6404 72.8202 46.5391C72.8202 46.5391 71.3445 51.0807 70.7542 50.7779C70.1702 50.4784 66.6969 41.8796 66.6234 41.6976C66.9139 42.4469 60.8312 49.917 61.0146 48.6585C61.1982 47.3983 63.1283 41.328 61.9 41.6946C57.7177 49.5617 51.4418 53.066 50.0944 51.9891C48.7469 50.9121 55.5481 44.9756 53.636 45.0252C53.8861 47.0798 37.5845 54.0256 39.1741 51.3835C40.7638 48.7414 45.6369 43.7365 43.8964 43.5113C43.8964 43.5113 34.4519 49.5669 35.0422 48.6585C35.6325 47.7501 36.927 43.49 36.813 42.9057C36.699 42.3214 28.4692 51.4064 27.9588 51.3835L29.1393 67.7335Z" fill="#FF7D43"/>
<path d="M23.8268 51.3835C25.2166 60.9835 26.4778 64.1028 29.1393 67.7335L27.9588 51.3835M23.8268 51.3835C23.8268 51.3835 20.3333 53.7458 19.3997 55.6224C18.466 57.4989 21.2926 43.9424 20.2851 45.328C20.2851 45.328 17.3337 45.9335 17.0385 45.328C16.7434 44.7224 21.1705 37.7585 21.1705 37.7585C21.1705 37.7585 16.9773 36.785 17.924 35.9419C18.8706 35.0988 27.0733 23.2252 27.0733 23.2252C27.0733 23.2252 34.4519 17.7752 35.3373 17.4724C36.2227 17.1696 37.8731 17.3761 39.1741 17.4724C39.1741 17.4724 38.7808 17.4844 39.1741 15.9585C39.5674 14.4326 57.8512 9.3803 57.768 9.90298C55.3582 12.4554 55.0432 13.3879 55.1118 14.7474C64.2461 18.6217 77.3699 22.2833 78.1328 22.3169C78.8957 22.3504 74.0643 24.3994 74.5911 24.7391C79.468 32.2911 85.8065 40.4835 86.987 42.3002C88.1676 44.1169 81.3793 42.3002 81.3793 42.3002C81.3793 42.3002 82.2648 45.3279 82.855 46.5391C83.4453 47.7502 80.1988 46.5391 80.1988 46.5391C80.6175 49.7345 80.8719 50.9209 81.3793 51.3835C82.283 52.8868 84.0356 54.1085 84.6259 55.0168C85.2161 55.9252 79.3133 54.1085 79.3133 54.1085C79.3595 56.0812 79.3822 57.1411 79.3133 57.4391L76.6571 58.6502L73.1154 66.8252C73.4804 59.1036 73.3642 54.6404 72.8202 46.5391C72.8202 46.5391 71.3445 51.0807 70.7542 50.7779C70.1639 50.4752 66.6223 41.6946 66.6223 41.6946C66.93 42.4271 60.831 49.9187 61.0146 48.6585C61.1982 47.3983 63.1283 41.328 61.9 41.6946C57.7177 49.5617 51.4418 53.066 50.0944 51.9891C48.7469 50.9121 55.5481 44.9756 53.636 45.0252C53.8861 47.0798 37.5845 54.0256 39.1741 51.3835C40.7638 48.7414 45.6369 43.7365 43.8964 43.5113C43.8964 43.5113 34.4519 49.5669 35.0422 48.6585C35.6325 47.7501 36.927 43.49 36.813 42.9057C36.699 42.3214 28.4692 51.4064 27.9588 51.3835M23.8268 51.3835H27.9588" stroke="#FF6622" stroke-width="2"/>
<path d="M29.4345 78.0276C27.9371 77.7251 26.5458 77.1811 25.3025 76.3622C25.0537 77.7362 22.6463 79.5415 22.9414 80.147C23.2366 80.7526 27.9588 79.2387 27.9588 79.2387C28.2204 80.2743 26.0443 84.6206 26.7783 84.9915C27.5122 85.3624 31.9307 83.5413 31.7957 83.4776L29.4345 78.0276Z" fill="#FF6622"/>
<path d="M24.7123 58.9526C20.6767 58.4987 18.5143 61.9804 19.99 68.036C20.9696 72.0557 22.8476 74.7451 25.3025 76.3622M25.3025 76.3622C26.5458 77.1811 27.9371 77.7251 29.4345 78.0276L31.7957 83.4776C31.9307 83.5413 27.5122 85.3624 26.7783 84.9915C26.0443 84.6206 28.2204 80.2743 27.9588 79.2387C27.9588 79.2387 23.2366 80.7526 22.9414 80.147C22.6463 79.5415 25.0537 77.7362 25.3025 76.3622ZM22.056 63.1915C22.7259 63.1228 23.3093 63.4934 23.8271 64.0998M27.6637 70.4581C26.5934 70.9647 25.5905 66.165 23.8271 64.0998M24.7123 70.7609C22.9817 68.9358 23.0944 67.3055 23.8271 64.0998" stroke="#FF6622" stroke-width="2"/>
<path d="M72.8203 81.056L73.7057 77.1199C75.4301 76.9958 76.7575 76.6529 77.8377 76.0495C77.8377 76.0495 78.7231 79.8449 78.7231 80.4505C78.7231 81.056 76.5704 78.9014 75.1814 78.6338C75.1814 78.6338 76.362 84.6894 75.7717 84.6894C75.1814 84.6894 73.3854 81.2595 72.8203 81.056Z" fill="#FF6622"/>
<path d="M73.1155 66.2199C74.9947 62.8733 76.2903 58.114 78.7231 58.045C81.156 57.9759 83.5283 61.4603 82.56 68.9449C81.175 72.5837 80.003 74.8399 77.8377 76.0495M77.8377 76.0495C76.7575 76.6529 75.4301 76.9958 73.7057 77.1199L72.8203 81.056C73.3854 81.2595 75.1814 84.6894 75.7717 84.6894C76.362 84.6894 75.1814 78.6338 75.1814 78.6338C76.5704 78.9014 78.7231 81.056 78.7231 80.4505C78.7231 79.8449 77.8377 76.0495 77.8377 76.0495ZM79.9037 62.5866C79.0167 62.3634 78.2882 62.5803 77.5154 63.4949M74.5912 69.2477C75.7896 66.294 76.6785 64.4854 77.5154 63.4949M77.2474 71.0644C80.402 68.3914 80.1206 66.7023 77.5154 63.4949" stroke="#FF6622" stroke-width="2"/>
<path d="M52.5289 67.7346C52.4643 67.8534 52.3211 74.1104 52.1897 74.5804C52.0583 75.0504 52.6188 78.3884 52.5908 78.6221C52.5627 78.8557 52.7848 75.196 52.7568 74.577C52.7288 73.958 52.5935 67.6158 52.5289 67.7346Z" stroke="#FF6622" stroke-width="2"/>
<path d="M33.5074 72.4561C34.4289 73.9081 34.6743 74.5116 34.5107 75.1206" stroke="#FF6622" stroke-width="2"/>
<path d="M68.3931 71.0635C69.0396 72.0485 69.2619 72.5825 69.2785 73.4857" stroke="#FF6622" stroke-width="2"/>
<path d="M65.1465 71.6699C66.1777 72.7733 66.4227 73.5794 66.6222 74.3949" stroke="#FF6622" stroke-width="2"/>
<path d="M51.4371 85.5449C50.5599 85.7287 49.769 85.8558 49.1706 85.8852C47.7324 85.9558 49.3236 85.7734 51.4371 85.5449C54.3802 84.9284 58.2942 83.6748 59.165 83.3415C59.2381 83.2877 59.2957 83.2571 59.3348 83.2585C59.3633 83.2596 59.3016 83.2892 59.165 83.3415C58.743 83.6522 57.8016 84.738 56.8916 84.9177C56.3496 85.0247 53.6158 85.3093 51.4371 85.5449Z" fill="#FF6622"/>
<path d="M49.1706 85.8852C52.0915 85.7418 59.5995 83.2682 59.3348 83.2585C59.07 83.2489 57.9592 84.7068 56.8916 84.9177C55.8239 85.1286 46.2497 86.0286 49.1706 85.8852Z" stroke="#FF6622" stroke-width="2"/>
<path d="M29.4346 73.1837C30.2496 77.5646 30.6818 80.1864 31.7957 82.5698C38.4628 88.7834 42.1803 91.0881 47.143 93.7726C52.9208 94.3574 54.2403 94.2237 58.3584 93.7726C64.6903 89.5738 67.6206 87.1638 71.9349 81.6936C72.9793 78.0059 73.4677 75.9214 73.4106 72.2754" stroke="#FF6622" stroke-width="2"/>
<path d="M36.5177 72.2754C37.1284 73.0178 37.3601 74.0258 37.4031 74.6976" stroke="#FF6622" stroke-width="2"/>
<path d="M28.4015 65.6142L23.6792 52.292L27.457 52.8589L28.4015 65.6142Z" fill="#FF6622" stroke="#FF6622" stroke-width="2"/>
<path d="M79.0183 54.1085C76.1135 52.2893 75.0464 50.3154 73.1155 46.8418C73.4106 51.7872 74.0009 61.8596 74.0009 62.5862C74.0009 63.3129 75.1815 60.2649 75.7717 58.6501L78.428 57.1362L79.0183 54.1085Z" fill="#FF6622" stroke="#FF6622" stroke-width="2"/>
<path d="M42.7157 61.3756C40.6908 61.1666 38.9098 61.2289 38.5837 61.3756C38.4829 61.3915 38.3845 61.4085 38.2886 61.4265C37.6867 69.1569 44.7692 68.8481 43.8962 61.8214C43.5478 61.6672 43.1556 61.5189 42.7157 61.3756Z" fill="#FF6622"/>
<path d="M34.7469 65.9172C34.6526 63.4537 35.3667 61.9732 38.2886 61.4265M46.2574 64.1006C46.04 63.2069 45.3479 62.4638 43.8962 61.8214M38.2886 61.4265C38.3845 61.4085 38.4829 61.3915 38.5837 61.3756C38.9098 61.2289 40.6908 61.1666 42.7157 61.3756C43.1556 61.5189 43.5478 61.6672 43.8962 61.8214M38.2886 61.4265C37.6867 69.1569 44.7692 68.8481 43.8962 61.8214" stroke="#FF6622" stroke-width="2"/>
<circle cx="52" cy="52" r="51" stroke="#FF6622" stroke-width="2"/>
</svg>
