<svg width="104" height="104" viewBox="0 0 104 104" fill="none" xmlns="http://www.w3.org/2000/svg">
<path d="M52 1C80.1665 1 103 23.8335 103 52C103 80.1665 80.1665 103 52 103C23.8335 103 1 80.1665 1 52C1 23.8335 23.8335 1 52 1Z" stroke="#FF6622" stroke-width="2"/>
<path d="M56.2633 22.4219C55.5176 20.2185 57.4807 14.4347 57.4807 14.4347C56.9197 13.9618 53.8893 23.0415 53.9797 25.0729C54.07 27.1043 44.2295 31.1325 36.7723 33.3706L36.0681 36.6467C35.716 38.2848 33.315 41.4819 33.315 41.4819C33.6247 42.5523 33.588 43.1073 32.7869 43.939C32.7869 43.939 33.8381 47.0212 33.6034 48.1133C33.3687 49.205 30.2169 46.9424 27.505 41.9506C27.5484 42.1718 26.3289 50.845 28.7836 51.9329C30.8107 52.8314 33.8286 52.0935 34.2893 51.3188C34.2111 50.9915 34.1673 50.8051 34.1673 50.8051C34.3669 50.9658 34.3938 51.1433 34.2893 51.3188C34.824 53.5551 36.9685 62.3704 37.7676 63.2897C38.6836 64.3434 44.7077 68.2089 44.7077 68.2089C43.1796 73.2493 42.2082 75.8939 39.5129 79.0887C38.6836 79.1752 32.8854 83.3582 30.9035 86.6811C30.315 87.8542 30.0487 88.3748 30.6337 87.177C30.7132 87.0143 30.8035 86.8488 30.9035 86.6811C31.9786 84.5378 34.1292 80.2165 34.1292 80.2165C32.417 83.2336 17.5302 88.8589 22.5043 85.1841C27.4785 81.5092 24.8468 78.2212 24.8468 78.2212C24.8468 78.2212 22.4926 78.8005 20.1533 79.3944C19.5108 79.7657 18.7755 80.0409 17.9373 80.2165C13.0626 81.2376 16.5907 80.299 20.1533 79.3944C25.7017 76.1885 24.3315 65.8195 22.5043 50.5832C20.9303 41.7542 23.7573 31.9874 24.7117 30.0238C25.6662 28.0601 33.2196 15.125 42.8044 9.63446C49.982 7.22318 52.6508 6.06316 58.117 8.99817C61.9219 7.15384 68.5871 11.8895 70.6694 13.1621C72.7517 14.4347 80.1055 22.0137 81.9141 27.3029C83.7226 32.5921 84.9222 42.3787 83.8836 48.067C81.7895 54.3202 79.8091 63.0702 79.564 62.848C79.3189 62.6258 82.7066 82.3044 86.221 83.7015C89.7354 85.0986 78.823 81.4807 77.6045 77.2794C76.2697 76.766 78.3108 82.4059 80.1918 87.8324C82.0729 93.2589 74.4917 79.9059 74.6014 76.6338C74.3266 76.6387 76.0514 86.4893 77.5791 89.0872C78.2249 89.6565 78.4955 89.8759 78.0843 89.6644C77.9205 89.5802 77.751 89.3797 77.5791 89.0872C75.6814 87.4146 70.5441 82.7212 69.9398 77.06C69.9398 77.06 69.3325 81.2139 69.0008 81.4282C68.6691 81.6425 66.3753 79.2404 64.1274 77.5244C60.0493 77.2762 60.7354 74.28 62.3387 68.5711L70.6694 64.3636L74.9482 52.4301C76.7023 53.6745 78.0819 53.06 80.0002 51.5167C82.1306 46.9366 82.3085 44.5838 79.9874 40.9457C79.5254 40.9978 74.8939 49.1498 74.8334 48.9779C74.7728 48.8061 74.8792 38.134 74.8792 38.134C72.9985 36.4251 71.9972 34.836 70.2222 32.0191L70.2023 31.9874C67.5218 31.0223 66.3163 29.8334 64.3541 27.3029C64.2109 28.2685 57.0089 24.6253 56.2633 22.4219Z" fill="#FF7D43" stroke="#FF6622" stroke-width="2"/>
<path d="M34.0116 50.2001C34.1682 49.9093 37.6166 60.3965 38.061 61.9243C38.5053 63.4521 46.293 68.9527 51.5126 71.0995C56.7323 73.2463 68.0376 64.8689 69.636 63.8556C71.2344 62.8423 74.6564 52.389 74.8895 52.7029" stroke="#FF6622" stroke-width="2"/>
<path d="M70.9346 45.8544C69.7868 45.1776 67.29 44.9173 65.7474 44.7395" stroke="#FF6622" stroke-width="2"/>
<path d="M43.6104 45.4081L45.2102 44.6095L41.758 44.7243C41.7679 46.4769 41.8596 47.419 42.9062 48.6843C44.4256 49.4363 46.3035 49.3099 46.5141 49.1741C46.7247 49.0383 48.5011 47.4624 47.3153 46.7757C46.1294 46.089 44.9008 45.9774 43.6104 45.4081Z" fill="#FF6622" stroke="#FF6622" stroke-width="2"/>
<path d="M68.7097 48.2324L69.9574 49.0719" stroke="#FF6622" stroke-width="2"/>
<path d="M61.4148 48.9508C61.0524 47.7128 61.6113 46.708 61.6113 46.708L62.7824 45.246L64.4205 45.5981C63.2083 45.5286 62.2165 45.4183 67.3063 46.7896C67.4263 48.6361 67.2362 48.9716 66.7781 49.2468C66.7075 49.8564 61.7772 50.1888 61.4148 48.9508Z" fill="#FF6622" stroke="#FF6622" stroke-width="2"/>
<path d="M60.6749 47.0772C63.0172 44.1532 66.8011 43.824 70.6412 47.22" stroke="#FF6622" stroke-width="2"/>
<path d="M68.6256 57.9258C69.2613 58.6071 69.5551 59.0703 69.8529 60.189" stroke="#FF6622" stroke-width="2"/>
<path d="M66.8114 58.3936C67.7033 59.104 68.0496 59.6438 68.253 60.9884" stroke="#FF6622" stroke-width="2"/>
<path d="M55.6556 63.1296C55.6556 63.1296 51.4345 62.0098 52.1631 62.2871C52.8917 62.5645 55.0523 63.5199 55.58 63.4993C56.1077 63.4788 55.6556 63.1296 55.6556 63.1296Z" stroke="#FF6622" stroke-width="2"/>
<path d="M54.3141 51.4229C54.6959 55.8728 54.3831 56.4307 54.9546 56.4162" stroke="#FF6622" stroke-width="2"/>
<path d="M49.1293 46.3094C46.81 43.8114 40.6863 43.0664 38.7727 46.6539" stroke="#FF6622" stroke-width="2"/>
<path d="M34.177 46.125L35.9452 46.1911M35.9452 46.1911C35.9452 46.1911 36.9089 42.4022 37.5879 41.9986C38.2668 41.5951 49.0327 42.3166 49.7757 42.7937C50.5188 43.2709 52.0979 44.8263 52.2019 45.716C52.306 46.6057 50.5677 54.5196 49.7237 55.4587C48.8797 56.3978 39.2285 54.806 38.4855 54.3289C37.7424 53.8517 35.9452 46.1911 35.9452 46.1911Z" stroke="#FF6622" stroke-width="1.75"/>
<path d="M75.1969 47.8893L73.8154 48.092M73.8154 48.092C73.8154 48.092 73.2479 44.2239 72.6143 43.7524C71.9806 43.2809 61.1978 42.8872 60.4095 43.2851C59.6212 43.683 57.8899 45.0671 57.6946 45.9413C57.4992 46.8155 58.4113 54.8666 59.1539 55.8878C59.8965 56.909 69.6604 56.322 70.4487 55.9241C71.237 55.5262 73.8154 48.092 73.8154 48.092Z" stroke="#FF6622" stroke-width="1.75"/>
<path d="M57.6098 48.244C55.5614 46.6035 54.4075 46.2156 52.3302 47.4773L51.986 48.8304C54.2846 47.5083 55.3389 47.9256 57.7381 50.0054L57.6098 48.244Z" stroke="#FF6622" stroke-width="1.75"/>
<path d="M67.8116 49.7539L68.2403 50.4173" stroke="#FF6622" stroke-width="2"/>
<path d="M40.2348 47.8246L38.908 48.6819" stroke="#FF6622" stroke-width="2"/>
<path d="M41.4237 48.9377L40.7016 49.6394" stroke="#FF6622" stroke-width="2"/>
<path d="M37.974 45.0545C39.1694 44.6181 40.4336 44.5719 41.8166 44.4523" stroke="#FF6622" stroke-width="2"/>
<path d="M40.4769 38.6598C43.8458 38.7694 49.2166 39.1514 49.4578 39.2887C49.699 39.426 49.4173 39.6019 49.3904 39.8107C49.3634 40.0194 44.6956 39.3312 41.6963 39.2418C39.7984 38.9968 39.5803 39.7379 38.1443 40.1155C36.7083 40.4931 40.4769 38.6598 40.4769 38.6598Z" stroke="#FF6622" stroke-width="2"/>
<path d="M68.5889 38.949C65.2184 38.9766 59.8399 39.228 59.5954 39.3594C59.351 39.4907 59.6282 39.6734 59.6501 39.8828C59.672 40.0922 64.3552 39.5176 67.3557 39.5011C69.2591 39.3023 69.4591 40.0485 70.8855 40.4609C72.3119 40.8733 68.5889 38.949 68.5889 38.949Z" stroke="#FF6622" stroke-width="2"/>
</svg>
