<svg width="105" height="104" viewBox="0 0 105 104" fill="none" xmlns="http://www.w3.org/2000/svg">
<path d="M52.4204 1C80.5869 1 103.42 23.8335 103.42 52C103.42 80.1665 80.5869 103 52.4204 103C24.2539 103 1.42041 80.1665 1.42041 52C1.42041 23.8335 24.2539 1 52.4204 1Z" stroke="#FF6622" stroke-width="2"/>
<path d="M33.6047 73.2101C39.8923 80.6633 50.0258 86.2101 56.8679 86.2101C63.71 86.2101 73.6311 79.368 75.6837 69.7891" stroke="#FF6622" stroke-width="2"/>
<path d="M22.0407 42.0788C26.8135 17.7569 38.736 9.23673 54.1307 10.6052C73.2886 4.10516 92.1044 28.7367 86.9728 52.6841C91.6957 56.4182 93.6834 58.8981 95.5255 64.3157C91.0789 58.6935 87.5012 53.8605 92.1044 62.2631C94.0674 66.4746 93.5178 68.0762 90.0518 69.7894C91.6941 73.7826 89.0408 80.2691 90.0518 76.9736C91.0628 73.6781 89.2165 70.5158 88.3412 72.1841C86.6339 76.6896 83.1665 77.045 78.0781 75.9473C74.657 77.1446 75.6834 69.4473 75.6834 69.4473C79.8676 70.1946 89.4107 63.0412 84.5781 55.7631C84.0119 54.9592 82.2739 64.6559 79.4465 66.0262C77.1888 67.3419 81.7824 58.9019 80.4728 56.1052C79.1633 53.3084 78.0781 57.8157 77.736 58.842C77.3939 59.8683 78.0381 52.4462 76.0256 45.842C78.4999 47.8144 80.8149 51.6578 79.7886 47.2104C78.7623 42.7631 67.8149 41.0525 60.9728 34.8946C54.3882 29.098 64.0291 39.7779 64.385 40.0275C64.388 40.027 64.3909 40.0266 64.3939 40.0262C64.397 40.0334 64.3939 40.0337 64.385 40.0275C61.984 40.3565 55.8375 35.5708 52.7623 29.0788C46.6044 34.5525 50.7097 50.9736 51.0518 52.342C49.0591 53.3384 46.0143 41.5551 48.7378 32.3007C46.2714 40.1756 45.4608 44.9076 46.2623 53.3683C44.1586 53.3681 43.5279 36.2629 45.5781 34.2104C45.4748 31.8371 36.6321 44.6053 35.6571 55.0788C34.8068 50.6373 34.9703 48.0208 35.6571 43.2762C33.4543 46.9275 32.6086 49.3476 32.5781 55.0788C32.5173 53.2272 32.1501 52.8337 31.2097 52.6841C30.5075 58.5377 30.3281 62.369 32.5781 66.3683C25.0519 68.0788 29.8414 63.2894 25.7362 57.8157C22.268 60.897 20.6045 67.7367 29.8414 71.842C32.1848 71.5277 33.2751 71.7284 33.9466 74.2367C34.0278 78.0983 32.959 79.2434 30.8677 79.7104C31.5783 77.2333 31.4343 76.4925 30.5256 75.9473C28.1309 81.421 12.0518 76.6315 13.7623 65.6841C11.8964 68.0354 11.2032 69.5448 12.394 73.5525C8.83949 70.1199 8.63083 63.2894 16.1572 58.4999C18.2098 55.0788 17.8676 54.3946 21.2887 53.0262C20.0379 46.4558 18.578 44.5873 15.1308 43.2762C14.0768 42.6045 15.4729 42.4209 21.2887 45.1578C27.1044 47.8946 16.1571 40.0262 15.1308 38.3157C14.1045 36.6052 22.0407 42.0788 22.0407 42.0788Z" fill="#FF7D43"/>
<path d="M80.815 80.3946C77.0519 81.0788 75.1598 78.3693 78.0781 75.9473M78.0781 75.9473C74.657 77.1446 75.6834 69.4473 75.6834 69.4473C79.8676 70.1946 89.4107 63.0412 84.5781 55.7631C84.0119 54.9592 82.2739 64.6559 79.4465 66.0262C77.1888 67.3419 81.7824 58.9019 80.4728 56.1052C79.1633 53.3084 78.0781 57.8157 77.736 58.842C77.3939 59.8683 78.0381 52.4462 76.0256 45.842C78.4999 47.8144 80.8149 51.6578 79.7886 47.2104C78.7623 42.7631 67.8149 41.0525 60.9728 34.8946C54.2237 28.9532 64.5209 40.3217 64.3939 40.0262C61.9991 40.3683 55.8413 35.5788 52.7623 29.0788C46.6044 34.5525 50.7097 50.9736 51.0518 52.342C48.9992 53.3683 45.8303 40.8353 48.9992 31.4736C46.3293 39.8533 45.4331 44.6156 46.2623 53.3683C44.1586 53.3681 43.5279 36.2629 45.5781 34.2104C45.4748 31.8371 36.6321 44.6053 35.6571 55.0788C34.8068 50.6373 34.9703 48.0208 35.6571 43.2762C33.4543 46.9275 32.6086 49.3476 32.5781 55.0788C32.5173 53.2272 32.1501 52.8337 31.2097 52.6841C30.5075 58.5377 30.3281 62.369 32.5781 66.3683C25.0519 68.0788 29.8414 63.2894 25.7362 57.8157C22.268 60.897 20.6045 67.7367 29.8414 71.842C32.1848 71.5277 33.2751 71.7284 33.9466 74.2367C34.0278 78.0983 32.959 79.2434 30.8677 79.7104C31.5783 77.2333 31.4343 76.4925 30.5256 75.9473C28.1309 81.421 12.0518 76.6315 13.7623 65.6841C11.8964 68.0353 11.2032 69.5448 12.394 73.5525C8.83949 70.1199 8.63083 63.2894 16.1572 58.4999C18.2098 55.0788 17.8676 54.3946 21.2887 53.0262C20.0379 46.4558 18.578 44.5873 15.1308 43.2762C14.0768 42.6045 15.4729 42.4209 21.2887 45.1578C27.1044 47.8946 16.1571 40.0262 15.1308 38.3157C14.1045 36.6052 22.0407 42.0788 22.0407 42.0788C26.8135 17.7569 38.736 9.23673 54.1307 10.6052C73.2886 4.10516 92.1044 28.7367 86.9728 52.6841C91.6957 56.4182 93.6834 58.8981 95.5255 64.3157C91.0789 58.6935 87.5012 53.8605 92.1044 62.2631C94.0674 66.4746 93.5178 68.0762 90.0518 69.7894C91.6941 73.7826 89.0408 80.2691 90.0518 76.9736C91.0628 73.6781 89.2165 70.5158 88.3412 72.1841C86.6339 76.6896 83.1665 77.045 78.0781 75.9473Z" stroke="#FF6622" stroke-width="2"/>
<path d="M35.6571 60.2103C34.6308 60.2103 33.9466 59.8682 34.2887 58.1577C36.1675 56.5603 38.0746 56.2843 42.1571 56.4472C46.0754 56.9407 47.1725 57.8296 48.315 59.8682C47.7587 59.3826 47.1211 59.0532 46.2624 58.8216C45.9203 61.5787 45.2361 63.2893 42.1571 63.2893C39.0782 63.2893 38.3716 61.0034 38.394 58.1689C38.2812 58.1652 38.1672 58.1615 38.0518 58.1577C37.0255 58.4998 35.6571 58.4998 35.6571 60.2103Z" fill="#FF6622"/>
<path d="M59.2624 58.8216C60.0761 56.462 63.3676 55.0787 66.1045 54.3945C70.5519 54.3945 71.5103 54.7998 72.9466 56.7893C73.1239 56.8692 72.6045 58.8419 71.9203 58.4998C71.2361 58.1577 71.5782 57.8156 71.2361 56.7893C70.877 56.3602 70.5519 56.1051 69.5255 56.1051C69.5255 59.8682 68.8413 61.2366 66.1045 61.9208C64.0519 61.9208 62.6637 61.5142 62.0833 58.1689C61.753 56.7373 61.0037 57.1683 59.2624 58.8216Z" fill="#FF6622"/>
<path d="M52.0782 67.3945C51.7361 68.0787 52.7624 70.4735 53.4466 70.4735C54.9765 70.4735 52.709 66.1329 52.0782 67.3945Z" fill="#FF6622"/>
<path d="M51.7361 77.9998C51.0519 79.7103 59.9466 77.9998 59.2624 76.6314C59.2624 76.6314 56.0341 77.6191 55.8413 77.6577C55.6485 77.6962 53.4845 78.3344 51.7361 77.9998Z" fill="#FF6622"/>
<path d="M38.394 58.1689C38.3716 61.0034 39.0782 63.2893 42.1571 63.2893C45.2361 63.2893 45.9203 61.5787 46.2624 58.8216M69.5255 56.1051L62.0833 58.1689M69.5255 56.1051C69.5255 59.8682 68.8413 61.2366 66.1045 61.9208C64.0519 61.9208 62.6637 61.5142 62.0833 58.1689M69.5255 56.1051C70.5519 56.1051 70.877 56.3602 71.2361 56.7893C71.5782 57.8156 71.2361 58.1577 71.9203 58.4998C72.6045 58.8419 73.1239 56.8692 72.9466 56.7893C71.5103 54.7998 70.5519 54.3945 66.1045 54.3945C63.3676 55.0787 60.0761 56.462 59.2624 58.8216C61.0037 57.1683 61.753 56.7373 62.0833 58.1689M34.2887 58.1577C33.9466 59.8682 34.6308 60.2103 35.6571 60.2103C35.6571 58.4998 37.0255 58.4998 38.0518 58.1577C44.414 58.3664 46.705 58.4627 48.315 59.8682C47.1725 57.8296 46.0754 56.9407 42.1571 56.4472C38.0746 56.2843 36.1675 56.5603 34.2887 58.1577ZM52.0782 67.3945C51.7361 68.0787 52.7624 70.4735 53.4466 70.4735C54.9765 70.4735 52.709 66.1329 52.0782 67.3945ZM51.7361 77.9998C51.0519 79.7103 59.9466 77.9998 59.2624 76.6314C59.2624 76.6314 56.0341 77.6191 55.8413 77.6577C55.6485 77.6962 53.4845 78.3344 51.7361 77.9998Z" stroke="#FF6622"/>
<path d="M61.6573 50.9742C64.3942 48.6602 70.8942 50.6321 70.8942 50.6321C70.5521 48.9216 63.0258 47.5532 59.9468 49.9479C58.6273 50.9742 60.9731 52.0006 61.6573 50.9742Z" fill="#FF6622"/>
<path d="M46.2626 49.6058C44.3701 48.5856 38.8332 48.4872 36.3416 50.9742C39.0339 49.8229 45.1035 50.6018 46.2626 50.9742C47.4217 51.3466 48.1551 50.6261 46.2626 49.6058Z" fill="#FF6622"/>
<path d="M61.6573 50.9742C64.3942 48.6602 70.8942 50.6321 70.8942 50.6321C70.5521 48.9216 63.0258 47.5532 59.9468 49.9479C58.6273 50.9742 60.9731 52.0006 61.6573 50.9742Z" stroke="#FF6622"/>
<path d="M46.2626 49.6058C44.3701 48.5856 38.8332 48.4872 36.3416 50.9742C39.0339 49.8229 45.1035 50.6018 46.2626 50.9742C47.4217 51.3466 48.1551 50.6261 46.2626 49.6058Z" stroke="#FF6622"/>
<path d="M73.6309 11.6318C77.7361 14.0266 80.1309 16.4213 82.5256 20.5266" stroke="#FF6622" stroke-width="2"/>
</svg>
