<svg width="104" height="104" viewBox="0 0 104 104" fill="none" xmlns="http://www.w3.org/2000/svg">
<circle cx="52" cy="52" r="51" stroke="#FF6622" stroke-width="2"/>
<path d="M69.4508 54.0177C69.0868 54.0188 57.8101 54.2745 57.8103 54.0177C57.8105 53.761 61.8117 52.6738 63.9943 52.6738C66.1769 52.6738 69.8148 54.0167 69.4508 54.0177Z" stroke="#FF6622" stroke-width="2"/>
<path d="M37.0434 54.2267C37.4073 54.2278 48.6841 54.4834 48.6838 54.2267C48.6836 53.97 44.6824 52.8828 42.4998 52.8828C40.3172 52.8828 36.6794 54.2257 37.0434 54.2267Z" stroke="#FF6622" stroke-width="2"/>
<path d="M33.737 64.5496C33.3724 63.4559 31.7637 63.1175 32.6433 61.9977C32.9698 61.5819 34.6846 61.0752 36.8154 60.8439C37.1185 60.811 37.7945 60.9247 38.1117 60.904C40.6269 60.7398 43.3027 60.918 45.0228 62.0733C43.8974 67.4659 38.8374 67.4356 38.1117 60.904C37.7945 60.9247 37.1185 60.811 36.8154 60.8439C34.403 61.74 34.1015 61.9977 33.737 62.7268C33.3724 63.4559 34.1015 65.6432 33.737 64.5496Z" fill="#FF6622"/>
<path d="M46.4965 63.8204C45.3337 61.1 41.5708 60.6782 38.1117 60.904M36.8154 60.8439C34.6846 61.0752 32.9698 61.5819 32.6433 61.9977C31.7637 63.1175 33.3724 63.4559 33.737 64.5496C34.1015 65.6432 33.3724 63.4559 33.737 62.7268C34.1015 61.9977 34.403 61.74 36.8154 60.8439ZM36.8154 60.8439C37.1185 60.811 37.7945 60.9247 38.1117 60.904M38.1117 60.904C38.8408 67.466 43.9446 67.466 45.0382 61.9977" stroke="#FF6622" stroke-width="2"/>
<path d="M61.4433 60.0804C61.8079 66.3722 67.2762 67.1013 68.0053 59.8102L61.4433 60.0804Z" fill="#FF6622"/>
<path d="M66.5471 71.8406C66.9781 72.7085 67.1208 73.1857 67.2762 74.0279M57.0686 63.0912C58.5072 61.6676 59.999 60.7025 61.4433 60.0804M69.8281 64.5494C69.8316 64.4187 70.9187 62.5555 70.5572 60.9038C70.2812 59.6425 66.1105 58.0701 61.4433 60.0804M61.4433 60.0804C61.8079 66.3722 67.2762 67.1013 68.0053 59.8102L61.4433 60.0804Z" stroke="#FF6622" stroke-width="2"/>
<path d="M63.9951 71.8398C64.6499 72.9446 64.8756 73.674 65.0888 75.1209" stroke="#FF6622" stroke-width="2"/>
<path d="M51.7472 72.9894C52.6233 74.0092 52.3328 75.0304 52.0408 74.6904C51.7488 74.3505 50.8715 72.3099 50.8712 71.9696C50.8708 71.6293 50.8712 71.9696 51.7472 72.9894Z" stroke="#FF6622" stroke-width="2"/>
<path d="M42.1092 86.8442C41.7318 86.8553 35.3661 88.8927 34.1013 82.323V81.3184C34.1013 81.3184 42.4867 86.833 42.1092 86.8442Z" fill="#FF6622" stroke="#FF6622" stroke-width="2"/>
<path d="M33.3723 78.4023C39.2528 84.2692 43.6048 87.7696 54.3546 90.7973C58.3429 90.7669 62.9254 87.8018 69.099 83.473" stroke="#FF6622" stroke-width="2"/>
<path d="M87.7449 65.4731C87.8482 24.234 79.3977 12.6457 57.9561 11.6213C57.9561 11.6213 52.6992 9.86523 46.8582 9.86523C41.0173 9.86523 32.9889 14.0748 28.1672 20.4015C21.5284 29.4336 19.4195 34.4229 17.6535 43.23C15.3656 56.9786 15.9616 58.832 15.9012 70.7412C15.9012 70.7412 16.4853 76.5947 17.0694 76.0093C17.6535 75.424 19.4058 64.8878 19.4058 64.8878C20.6228 71.9712 22.9103 87.1309 23.4944 87.7163C24.0785 88.3016 26.999 89.4723 28.1672 89.4723C29.3354 89.4723 29.9195 79.5214 29.9195 79.5214C29.9195 79.5214 30.5036 90.0576 31.0877 90.643C31.6718 91.2283 33.424 91.8137 33.424 90.643V88.3016C33.377 86.0318 33.3665 84.5993 33.424 81.2775C31.7757 70.4747 31.3356 65.0578 31.0877 56.1076C31.0877 56.1076 38.6809 57.8636 39.265 57.2783C39.8491 56.6929 41.6014 44.4007 42.1855 44.4007C42.7696 44.4007 41.6014 54.9369 42.1855 56.1076C42.7696 57.2783 45.2077 56.7636 45.7918 56.1782C46.3759 55.5929 47.5441 48.5687 48.1282 48.5687C48.7123 48.5687 48.6105 54.9369 49.1946 55.5222C49.7787 56.1076 49.7787 56.1076 50.3628 55.5222C50.9469 54.9369 56.2038 37.9618 56.7879 37.9618C57.372 37.9618 53.2833 54.9369 53.8674 54.9369C54.4515 54.9369 55.0356 55.5222 55.6197 54.9369C56.2038 54.3515 57.372 46.742 57.9561 46.742C58.5402 46.742 59.1242 57.2783 60.2924 57.2783C61.4606 57.2783 66.1334 56.6929 66.7175 56.1076C67.3016 55.5222 66.1334 37.9618 66.7175 37.9618C67.3016 37.9618 69.638 53.1808 70.2221 53.1808H73.1425C73.7266 53.1808 70.222 67.8145 70.2221 68.3998C70.2221 68.9852 71.3903 69.5705 71.9743 69.5705C72.5584 69.5705 74.8948 56.1076 75.4789 56.1076C76.063 56.1076 75.4789 68.9852 75.4789 69.5705C75.4789 70.1559 77.2312 70.1559 77.8153 69.5705C78.3994 68.9852 78.9835 59.0343 78.9835 58.449C78.9835 57.8636 81.904 57.2783 81.904 57.2783C85.4899 58.4137 86.2347 60.8004 85.9926 67.2291C85.0632 70.2986 84.2915 71.8968 81.904 74.2533C78.3055 76.0758 75.5881 73.6159 75.4789 74.2533C75.3697 74.8907 73.0861 80.2735 73.1425 79.5214C71.4165 81.4491 70.4106 82.4918 68.4698 84.2042C68.4698 84.2042 67.8857 89.4723 68.4698 89.4723C69.0539 89.4723 74.8948 88.3016 75.4789 88.3016C76.063 88.3016 74.8948 92.9844 75.4789 92.9844C76.063 92.9844 79.515 90.5012 81.904 89.4723C84.2929 88.4434 89.3573 65.0766 87.7449 65.4731Z" fill="#FF7D43" stroke="#FF6622" stroke-width="2"/>
<path d="M19.519 81.3184C19.9187 82.0251 20.2482 88.2449 20.6127 88.9741C20.9773 89.7032 23.8562 90.7534 24.2583 91.1614" stroke="#FF6622" stroke-width="2"/>
<path d="M54.5475 83.7893C53.5355 83.5414 50.6888 83.6369 51.9706 83.7423C53.2523 83.8476 54.7366 84.6286 55.0064 84.486C55.2762 84.3434 55.5594 84.0372 54.5475 83.7893Z" stroke="#FF6622" stroke-width="2"/>
</svg>
