<svg width="105" height="104" viewBox="0 0 105 104" fill="none" xmlns="http://www.w3.org/2000/svg">
<path d="M31.3638 53.4029C26.6321 53.1614 25.1761 56.3015 25.1761 56.3015C28.4791 55.4303 31.3229 55.2619 37.5515 55.3353C37.5515 55.3353 36.0956 53.6445 31.3638 53.4029Z" fill="#FF6622" stroke="#FF6622" stroke-width="2"/>
<path d="M53.0038 52.3486C48.018 51.8003 46.2868 54.84 46.2868 54.84C49.8309 54.1848 52.8466 54.2015 59.4246 54.6792C59.4246 54.6792 57.9897 52.897 53.0038 52.3486Z" fill="#FF6622" stroke="#FF6622" stroke-width="2"/>
<path d="M31.3637 59.3425C32.2541 59.2408 33.2996 59.2764 34.6395 59.4333C35.7315 64.3092 30.6358 65.4011 31.3637 59.3425Z" fill="#FF6622"/>
<path d="M28.0879 60.6697C29.1342 59.9146 30.0903 59.488 31.3637 59.3425M35.7315 59.5777C35.3465 59.5218 34.9834 59.4736 34.6395 59.4333M31.3637 59.3425C32.2541 59.2408 33.2996 59.2764 34.6395 59.4333M31.3637 59.3425C30.6358 65.4011 35.7315 64.3092 34.6395 59.4333" stroke="#FF6622" stroke-width="2"/>
<path d="M88.5087 32.2793C88.5224 34.7393 88.7593 35.8998 89.6006 37.375C89.6432 39.266 90.1404 39.9959 91.4205 41.0148" stroke="#FF6622" stroke-width="2"/>
<path d="M49.5627 58.8491C52.4242 58.3217 54.2953 58.368 57.9343 58.8491" stroke="#FF6622" stroke-width="2"/>
<path d="M52.8386 58.8496C52.8386 63.9453 57.2064 64.6733 57.2064 58.8496H52.8386Z" fill="#FF6622" stroke="#FF6622" stroke-width="2"/>
<path d="M45.3848 85.4551C44.4539 85.6431 44.7053 85.2875 44.7053 85.2875C44.7053 85.2875 40.3163 84.3449 40.5082 83.6964C40.7002 83.0479 42.8577 84.1364 42.8577 84.1364C42.8577 84.1364 46.3156 85.2671 45.3848 85.4551Z" stroke="#FF6622" stroke-width="2"/>
<path d="M23.9021 61.3975C23.675 65.7245 23.5369 68.1647 24.2661 71.2249C25.5596 74.2228 26.3758 75.2669 27.9059 76.6846" stroke="#FF6622" stroke-width="2"/>
<path d="M84.5049 65.4014C83.8517 72.4179 82.8229 75.8431 76.4973 78.5047C74.538 78.8579 73.4002 78.9747 71.0376 78.5047C71.12 80.6372 70.7605 81.7449 69.5817 83.6004C63.0661 88.1789 59.1833 90.5135 51.3827 93.7918C47.7092 94.0893 45.583 94.2225 40.4633 93.7918C32.6717 89.7663 29.3893 86.4829 27.724 76.6848L27.36 66.4933" stroke="#FF6622" stroke-width="2"/>
<path d="M80.8651 64.3092C79.7134 63.8914 78.8627 63.9478 77.8944 64.6732M72.8575 75.2286C73.4456 74.1149 73.2721 73.5923 72.8575 72.6807C74.5466 72.0978 75.3723 70.7783 76.1334 66.493C76.801 65.6655 77.3653 65.0695 77.8944 64.6732M77.2253 73.0447C78.8591 72.0702 79.501 71.2178 79.4092 68.313M79.4092 68.313C78.3363 67.0629 77.9111 66.2992 77.8944 64.6732M79.4092 68.313L76.4973 66.493" stroke="#FF6622" stroke-width="2"/>
<path d="M39.0074 77.0488C39.3212 76.1957 39.419 75.718 39.0074 74.8649C37.4905 73.3541 37.3427 73.4627 35.7316 72.681C37.227 70.5626 37.897 68.3019 39.0074 65.4014C39.3531 63.3962 39.4075 61.8823 39.0074 57.7578" stroke="#FF6622" stroke-width="2"/>
<path d="M23.3562 57.7576C23.9014 64.0262 24.6374 66.1061 28.4519 66.4931H35.0036C37.7491 66.8198 38.6214 64.8395 39.0074 57.7576C40.792 57.3357 41.9828 57.4277 43.3751 57.7576C43.6299 63.4432 43.9533 65.7736 47.3789 66.4931H57.5704C60.8381 66.9735 61.3264 64.1775 61.5741 57.7576H69.5817" stroke="#FF6622" stroke-width="2"/>
<path d="M69.5817 60.3057L73.5855 62.8535" stroke="#FF6622" stroke-width="2"/>
<path d="M52.4749 30.4591C50.7798 34.4508 50.2622 33.2589 49.9271 25.3634C48.3649 28.7851 48.2873 30.6762 49.9271 34.0989C48.0302 33.5492 47.2146 33.607 47.0152 35.5548C44.9795 36.1885 43.9684 36.0538 42.6475 34.0989C42.6475 34.0989 41.5552 35.5548 40.0996 35.5548C38.644 35.5548 36.5866 31.9071 36.4598 27.5473C35.237 31.1038 35.2687 32.874 36.4598 35.5548C34.892 36.8174 34.0238 36.8575 32.456 35.5548C31.3819 36.5544 30.6977 36.6996 29.1802 35.5548C29.3142 38.1922 28.9284 39.1187 26.6323 38.8306L25.1764 56.6657C21.1536 51.1492 19.8226 47.5936 22.2646 38.8306L18.6248 43.9264C16.2984 41.2182 17.4467 38.8665 21.1726 34.0989C15.6039 27.9842 19.0879 25.4118 26.6323 20.9956L23.3565 24.2714L29.1802 22.4515C29.9741 18.6697 31.2228 16.9887 34.2759 14.444C44.2325 7.40206 45.8307 10.1629 49.9271 12.988C47.0835 11.3178 45.4904 11.8202 42.6475 12.988L39.0077 16.6278L42.6475 14.444H54.6588C66.1629 14.1916 70.9776 15.9639 76.1337 22.4515C83.7652 24.8844 85.5177 28.9002 87.0531 37.7387C90.5424 45.8706 91.3994 49.5296 89.237 53.0259C88.9692 59.3834 88.2715 62.4206 84.5052 65.4012C80.9654 59.7754 79.1605 59.5579 76.1337 62.4894L73.9498 60.3055C73.9498 60.3055 71.0379 57.7576 69.582 56.6657C68.1261 55.5737 67.7621 50.478 67.7621 50.478C62.0477 48.4558 58.6117 47.6119 57.2067 40.2866C55.8527 44.5595 57.5591 47.5788 60.8465 53.0259C52.5095 49.285 47.2152 47.8086 52.4749 30.4591Z" fill="#FF6622" stroke="#FF6622" stroke-width="2"/>
<path d="M68.7902 62.2158L71.8295 64.2184" stroke="#FF6622" stroke-width="2"/>
<path d="M68.1257 64.4375L70.3096 65.7161" stroke="#FF6622" stroke-width="2"/>
<path d="M59.7543 71.9531C60.8507 72.9366 61.2182 73.5678 61.5742 74.865" stroke="#FF6622" stroke-width="2"/>
<path d="M63.03 71.5889C64.1264 72.5724 64.4939 73.2035 64.8499 74.5007" stroke="#FF6622" stroke-width="2"/>
<circle cx="52.4205" cy="52" r="51" stroke="#FF6622" stroke-width="2"/>
</svg>
