<svg width="213" height="213" viewBox="0 0 213 213" fill="none" xmlns="http://www.w3.org/2000/svg">
<path d="M106.138 0C47.5201 0 0 47.5201 0 106.138C0 164.757 47.5201 212.277 106.138 212.277C164.757 212.277 212.277 164.757 212.277 106.138C212.277 47.5201 164.757 0 106.138 0ZM92.2707 21.2774L92.8545 20.5975C94.3338 18.8893 96.0088 16.9556 96.2609 13.6321C96.4798 10.8692 95.5046 8.91894 94.4499 7.34013C98.2875 6.88905 102.181 6.63365 106.138 6.63365C110.998 6.63365 115.767 6.9985 120.441 7.67182C121.31 8.75642 122.451 9.88745 124.301 10.647C126.265 11.4928 128.583 12.1628 131.502 11.4729C132.365 11.2673 133.035 10.9024 133.612 10.5044C135.661 11.0915 137.688 11.7283 139.685 12.4414C140.385 14.4614 141.728 16.8694 145.005 17.284C146.849 17.546 148.391 17.2574 149.741 16.677C177.851 30.4053 198.505 56.9864 204.104 88.7649C203.56 89.9125 203.481 91.0402 203.464 91.7533C203.457 91.9523 203.474 92.1547 203.491 92.2077C203.371 92.3935 203.219 92.4897 202.479 92.8446C201.633 93.2525 200.479 93.8098 199.414 94.9308C198.203 96.1813 197.646 97.4185 197.198 98.4135C196.85 99.1896 196.651 99.6109 196.29 99.9724C196.058 100.198 195.606 100.334 194.897 100.54C193.51 100.938 191.417 101.538 190.011 103.817C188.674 105.969 188.787 107.959 188.867 109.412C188.877 109.578 188.89 109.747 188.896 109.92C188.641 110.046 188.329 110.175 188.004 110.281C188.197 109.233 188.223 107.784 187.285 106.294C186.017 104.361 184.342 104.069 183.46 104.069C181.775 104.069 180.505 105.037 179.689 105.83C179.706 104.225 179.669 102.745 179.407 101.637C179.162 100.523 179.317 99.9028 179.842 98.105L180.024 97.4748C180.259 96.6191 180.727 96.0088 181.371 95.1597C182.256 93.9988 183.357 92.556 183.881 90.3271C184.469 87.8992 184.296 86.1081 184.127 84.3734C184.064 83.7598 184.001 83.113 183.971 82.3667L183.908 80.6121C183.842 78.549 183.789 76.7679 183.281 74.1675L183.052 73.0099C182.541 70.3996 182.097 68.1475 180.233 65.305C178.638 62.9202 177.377 61.2452 174.581 59.7592C173.921 59.3977 173.234 59.1058 172.535 58.8869C171.404 58.5088 170.369 58.3794 169.367 58.2501L168.332 58.1108C166.564 57.8521 164.972 58.1605 163.801 58.3993C162.853 58.5917 162.249 58.7476 161.775 58.4856C161.3 58.2269 161.075 57.9549 160.488 57.2119C160.176 56.8172 159.848 56.4026 159.413 55.9217C158.975 55.4507 158.677 55.0129 158.388 54.5983C157.818 53.7856 157.111 52.7707 155.868 51.7657C154.541 50.6877 153.529 49.9315 151.625 49.2648C148.239 48.1437 145.124 48.9795 142.438 49.9315C140.235 50.6943 138.892 51.8022 137.701 52.7773C137.181 53.2085 136.63 53.6662 136.096 54.0244C135.572 54.3296 135.101 54.5419 134.656 54.7541C133.608 55.2417 132.418 55.7989 131.101 56.9698C130.185 57.7725 127.078 59.799 126.358 59.9815C126.036 59.9682 125.718 59.8388 125.137 59.5901C124.388 59.265 123.366 58.8305 122.185 58.7343L121.465 58.6912C121.243 58.6912 121.014 58.7045 120.845 58.7211C119.339 58.8338 118.281 59.3247 117.502 59.6796C117.197 59.8189 116.885 59.9781 116.494 60.0743C115.346 60.3596 114.052 60.3397 112.752 60.27C110.672 60.1639 108.633 60.2236 106.762 60.7543C105.226 61.1888 104.115 61.9384 103.306 62.489C102.433 63.0794 102.225 63.1822 101.893 63.1855C101.558 63.1855 101.319 63.0462 100.394 62.3165C99.4782 61.5934 98.2211 60.6017 96.367 60.0876C95.0303 59.7294 94.0784 59.6133 93.0701 59.4906L92.1513 59.3778C90.41 59.1257 89.1662 59.0229 87.7565 58.9068C87.1031 58.8537 86.4132 58.8007 85.6072 58.7211L84.6719 58.7045L84.5193 58.7642C84.4099 58.7708 84.2805 58.7774 84.1379 58.7841L84.1014 58.7609C83.04 58.0212 81.9422 57.2617 80.3302 56.4789C79.1428 55.8951 78.1776 55.4507 77.1162 55.0692C77.0697 53.8851 76.9371 52.3063 76.5822 51.2449C76.5059 51.0028 76.4263 50.7905 76.3235 50.5252C76.3599 50.3726 76.4263 50.1172 76.5556 49.7292C76.9868 48.482 77.6568 47.5467 77.9487 47.1719C78.1278 47.0492 78.2936 46.943 78.4529 46.8369C79.0731 46.4389 79.8393 45.9413 80.6287 45.0856C82.841 42.7439 83.846 40.4852 84.0981 37.2678C84.2971 34.3955 82.6951 32.4651 81.6337 31.1848C81.3285 30.8233 80.8576 30.2561 80.7912 30.1831C80.9338 29.6226 81.1826 29.3804 82.569 28.4617C83.3253 27.9608 84.1147 27.4268 84.8676 26.7668C85.7233 26.0271 86.5459 25.5595 87.4945 25.0188C88.9805 24.173 90.6621 23.2145 92.2707 21.2774ZM14.6139 145.227C10.8394 136.401 8.31196 126.915 7.23399 116.998C8.04662 115.472 9.03171 113.993 10.3717 112.361C11.3303 111.216 12.3485 110.523 13.5227 109.724C14.9522 108.749 16.5742 107.641 18.1099 105.72C19.954 103.475 20.5577 101.08 21.0453 99.1532C21.5693 97.0868 21.8678 96.0586 22.9624 95.299C24.4881 94.2575 25.6954 94.1448 27.8845 93.9391C28.6706 93.8695 29.5032 93.7865 30.4219 93.6572L31.6425 93.4781C35.9477 92.8446 38.6974 92.5593 42.2762 93.5676C44.7042 94.2476 46.2001 95.3819 48.094 96.8148C49.3411 97.7601 50.7541 98.8281 52.5584 99.8596C53.9581 100.659 55.1422 101.541 56.2865 102.394C58.8438 104.294 61.4873 106.258 65.8821 106.901C68.4029 107.25 70.5256 106.47 72.1343 105.863C72.9403 105.555 73.7032 105.266 74.1775 105.266C74.2869 105.266 74.4262 105.276 74.6518 105.399C76.8243 106.606 77.3085 107.608 77.3981 108.294C76.9337 108.424 76.2604 108.54 75.7662 108.629C73.4345 109.037 69.0961 109.797 68.5953 114.265C68.3432 116.421 69.0828 117.77 69.7561 118.52C71.4942 120.48 74.7347 120.271 78.3865 119.449C79.9587 119.094 81.5873 118.722 82.8908 118.722C83.4845 118.722 83.8361 118.802 83.9953 118.858C84.9571 119.207 85.9953 119.462 87.0069 119.701C87.4514 119.804 88.0451 119.943 88.5559 120.082C88.1811 120.152 87.7963 120.222 87.4713 120.278C85.9422 120.54 84.2142 120.839 82.6321 121.591C81.3849 122.172 80.3202 122.723 79.3219 123.243C77.2853 124.298 75.6734 125.134 73.2189 125.801C72.4693 126 71.3316 125.83 70.1343 125.628C69.1856 125.466 68.2072 125.3 67.1723 125.3C64.7245 125.3 62.7974 126.272 61.4574 128.169C58.3927 132.454 60.2103 136.935 61.086 139.094C62.2767 142.023 65.0827 145.516 71.6567 145.516C74.7513 145.516 78.3301 144.763 82.9173 143.151C86.0816 142.03 87.9357 140.003 89.4216 138.371C90.6223 137.051 91.5709 136.01 93.1033 135.326L94.7915 134.557C98.2676 132.955 100.812 131.814 103.545 133.101C104.278 133.446 104.596 134.103 105.263 135.748C106.036 137.665 107.097 140.292 110.052 141.864C112.742 143.29 116.102 142.773 118.557 142.07C120.029 141.648 121.21 141.287 122.066 141.788C122.965 142.322 123.336 143.045 124.019 144.497C124.63 145.794 125.386 147.406 126.849 148.939C127.286 149.4 127.698 149.848 128.092 150.279C130.517 152.935 132.812 155.443 137.353 156.518C138.006 156.67 138.673 156.746 139.336 156.746C141.658 156.746 143.526 155.821 145.025 155.075C146.312 154.438 147.303 153.96 148.113 154.212C151.499 155.32 152.202 156.08 152.521 157.433C152.799 158.518 151.652 159.43 147.4 161.483C146.723 161.811 146.05 162.136 145.41 162.468C143.124 163.646 141.413 163.791 138.822 164.014C137.788 164.1 136.683 164.196 135.492 164.359C133.088 164.66 130.915 165.181 128.812 165.685C126.388 166.269 124.096 166.816 122.102 166.816C120.109 166.816 118.517 166.269 116.978 165.062C115.717 164.053 115.134 162.982 114.324 161.503C113.737 160.428 113.074 159.211 112.026 157.824C111.1 156.657 110.304 154.979 109.535 153.35C107.837 149.758 105.724 145.287 100.918 145.287C100.098 145.287 99.246 145.433 98.3837 145.725C94.6489 146.982 93.4051 149.974 92.4963 152.156C92.1049 153.095 91.7367 153.98 91.2392 154.71C89.9954 156.484 89.3685 158.368 88.8113 160.03C87.8793 162.82 87.5874 163.148 86.8444 163.257C85.647 163.43 84.8941 162.922 83.113 161.635C82.5823 161.251 82.0317 160.849 81.4479 160.465C80.3003 159.702 79.6237 158.856 78.7646 157.781C77.8061 156.584 76.7182 155.224 74.937 153.944C72.9569 152.484 71.1691 151.785 69.5936 151.164C68.32 150.667 67.2188 150.236 66.0048 149.43C65.5438 149.121 65.1358 148.604 64.6615 148C63.5835 146.633 61.955 144.567 58.7376 144.451L58.4026 144.444C55.978 144.444 52.5916 145.307 50.2234 149.41C49.3643 150.896 48.764 152.902 48.1205 155.025C47.079 158.491 45.6495 163.231 43.4106 163.231H43.4073C41.0921 163.075 34.2761 157.108 30.999 154.239C28.6507 152.183 26.6208 150.408 25.1581 149.44L24.0569 148.68C21.5527 146.939 18.9722 145.144 15.5625 145.144C15.2508 145.144 14.9323 145.194 14.6139 145.227ZM106.138 205.643C68.048 205.643 34.966 184.23 18.2459 152.786C18.8827 153.174 19.5494 153.622 20.2625 154.116L21.4632 154.942C22.5776 155.682 24.5412 157.397 26.6208 159.218C33.5198 165.254 38.7272 169.549 42.9695 169.838C50.4655 170.332 52.8735 162.206 54.4656 156.926C54.9664 155.257 55.4905 153.532 55.9615 152.71C56.8404 151.191 57.6796 151.065 58.5221 151.061C58.7078 151.161 59.1489 151.725 59.4408 152.096C60.1241 152.965 60.9798 154.047 62.3165 154.939C64.1308 156.143 65.7395 156.773 67.1657 157.33C68.5322 157.864 69.713 158.329 71.0199 159.297C72.0978 160.067 72.7811 160.926 73.5771 161.917C74.602 163.194 75.7563 164.637 77.7729 165.984C78.2837 166.322 78.7547 166.664 79.2124 166.992C81.3617 168.558 83.8394 170.365 87.7698 169.818C92.7616 169.102 94.1647 164.906 95.0934 162.13C95.5478 160.776 95.9756 159.499 96.6888 158.475C97.5909 157.154 98.1349 155.851 98.6092 154.703C99.4616 152.66 99.7436 152.259 100.493 152.007C100.725 151.927 100.851 151.904 100.938 151.917C101.611 152.129 102.858 154.766 103.528 156.183C104.414 158.057 105.419 160.179 106.772 161.884C107.478 162.816 107.969 163.722 108.497 164.677C109.445 166.418 110.523 168.395 112.848 170.259C115.591 172.405 118.613 173.45 122.096 173.45C124.875 173.45 127.539 172.813 130.351 172.137C132.278 171.672 134.275 171.195 136.348 170.936C137.449 170.787 138.444 170.704 139.376 170.621C142.262 170.379 144.985 170.143 148.448 168.359C149.038 168.054 149.655 167.755 150.279 167.457C154.408 165.46 160.65 162.445 158.956 155.851C157.669 150.365 152.79 148.766 150.143 147.904C149.307 147.638 148.448 147.503 147.589 147.503C145.357 147.503 143.532 148.408 142.066 149.138C140.793 149.771 139.728 150.259 138.862 150.063C136.321 149.459 135.064 148.083 132.985 145.808C132.564 145.343 132.122 144.869 131.651 144.368C130.928 143.609 130.507 142.713 130.02 141.675C129.184 139.897 128.146 137.685 125.452 136.083C122.746 134.474 119.25 134.965 116.712 135.698C115.25 136.119 114.069 136.491 113.167 136.006C112.411 135.608 112.069 134.905 111.412 133.27C110.616 131.297 109.528 128.593 106.371 127.104C104.619 126.281 102.878 125.88 101.054 125.88C97.77 125.88 94.9706 127.174 92.0054 128.544L90.4034 129.277C87.6007 130.524 85.8925 132.401 84.516 133.91C83.2291 135.323 82.3004 136.341 80.7116 136.902C76.9105 138.239 73.9486 138.892 71.66 138.892C68.582 138.892 67.6964 137.731 67.2354 136.607C66.1143 133.844 66.2204 132.932 67.1757 131.947C67.7561 131.947 68.3763 132.069 69.0231 132.179C70.7545 132.471 73.0033 132.723 74.9337 132.222C78.098 131.366 80.1776 130.285 82.38 129.141C83.3021 128.66 84.2805 128.152 85.4547 127.605C86.2341 127.237 87.4381 127.028 88.5957 126.829C91.1729 126.384 96.5428 125.466 96.1514 119.916C95.7501 114.955 91.2293 113.893 88.5261 113.256C87.7665 113.077 86.987 112.905 86.2408 112.633C85.2988 112.298 84.2706 112.125 83.1097 112.105C83.5939 111.389 83.9289 110.5 84.0218 109.386C84.3037 105.326 82.2373 102.039 77.8691 99.6142C76.7082 98.9741 75.4677 98.649 74.1841 98.649C72.4859 98.649 71.0497 99.1963 69.7827 99.6805C68.6417 100.112 67.6466 100.47 66.834 100.354C64.1142 99.9558 62.4923 98.7518 60.2534 97.0868C59.0129 96.1647 57.6033 95.1166 55.8586 94.1149C54.4225 93.299 53.3014 92.4465 52.1106 91.5477C49.9514 89.9125 47.7192 88.2176 44.0839 87.196C39.4569 85.8958 35.5166 86.2142 30.6806 86.9307L29.4899 87.1064C28.7005 87.2192 27.9708 87.2856 27.2809 87.3486C24.77 87.5841 22.1763 87.8262 19.211 89.8495C16.0037 92.0784 15.2408 95.1066 14.6239 97.5412C14.2325 99.0901 13.8909 100.427 12.9622 101.564C12.0235 102.739 11.0384 103.409 9.79458 104.258C8.81612 104.924 7.7481 105.667 6.65355 106.692C6.64692 106.497 6.63365 106.321 6.63365 106.138C6.63365 57.6729 41.2945 17.3171 87.1761 8.46122C87.5443 9.03171 87.9224 9.58562 88.2839 10.0865C89.4382 11.6785 89.7234 12.186 89.6471 13.1214C89.5642 14.2192 89.1463 14.7466 87.8395 16.2524L87.1894 17.0153C86.327 18.0502 85.4414 18.5576 84.2109 19.2575C83.1229 19.881 81.8858 20.5842 80.5259 21.7584C79.9852 22.2294 79.4313 22.5876 78.9073 22.9325C77.3251 23.9806 75.1559 25.4201 74.3599 28.5744C73.5506 31.8349 75.418 34.087 76.5357 35.4336C76.8939 35.8715 77.5009 36.6012 77.4877 36.7969C77.355 38.4884 77.0001 39.2944 75.7828 40.578C75.5473 40.8367 75.3417 40.9727 74.8674 41.2812C74.4926 41.52 74.0979 41.7787 73.66 42.1137L73.2587 42.4786C73.0597 42.6875 71.315 44.6113 70.2802 47.623C69.4941 49.9945 69.4609 51.2317 70.1343 52.9233L70.2802 53.3146C70.3996 53.716 70.5124 55.1289 70.519 56.0411L70.2404 60.081L72.9403 60.7543C74.7148 61.1954 75.6137 61.5636 77.428 62.4591C78.5922 63.0197 79.3583 63.5537 80.3269 64.227L81.302 64.887C82.6022 65.6632 83.9223 65.5272 85.3253 65.3713C86.0252 65.4409 86.6421 65.4874 87.2292 65.5371C88.5061 65.6366 89.6339 65.7295 91.2392 65.9617L92.2807 66.0911C93.09 66.1906 93.7335 66.2602 94.629 66.499C95.1398 66.6416 95.5743 66.9733 96.2941 67.5372C97.5213 68.5057 99.2029 69.8291 101.949 69.8291C104.351 69.8125 105.903 68.7578 107.037 67.985C107.694 67.5405 108.089 67.2818 108.58 67.1458C109.734 66.8174 111.054 66.8307 112.397 66.9004C114.334 67.0098 116.295 66.97 118.112 66.5189C118.958 66.3066 119.631 66.0148 120.275 65.7162C120.839 65.4575 121.048 65.368 121.117 65.3547L121.356 65.3613L121.528 65.3414C121.747 65.358 122.089 65.504 122.52 65.6864C123.373 66.0512 124.537 66.5554 126.295 66.6151C129.874 66.6151 135.419 62.0047 135.486 61.9483C136.103 61.4044 136.617 61.1656 137.472 60.7642C138.076 60.4823 138.71 60.1805 139.582 59.673C140.497 59.066 141.227 58.4756 141.917 57.9084C142.892 57.1091 143.532 56.5784 144.637 56.1936C146.949 55.3711 148.05 55.0659 149.483 55.5502C150.302 55.8354 150.634 56.0643 151.692 56.9233C152.209 57.3413 152.484 57.7393 152.949 58.3993C153.4 59.0461 153.877 59.7161 154.524 60.406C154.813 60.7277 155.052 61.0296 155.277 61.3181C156 62.2303 156.899 63.3713 158.584 64.3C160.684 65.4409 163.254 65.2751 165.145 64.8937C165.994 64.7212 166.654 64.562 167.36 64.6714L168.534 64.8307C169.344 64.9335 169.928 65.0098 170.495 65.1955C170.78 65.2817 171.079 65.4011 171.437 65.5935C172.889 66.3663 173.433 67.0562 174.71 68.9667C175.845 70.6981 176.094 71.9718 176.548 74.2869L176.783 75.471C177.185 77.5109 177.228 78.8973 177.284 80.8144L177.351 82.642C177.387 83.521 177.457 84.2905 177.53 85.0168C177.672 86.4696 177.765 87.4315 177.437 88.7914C177.241 89.6206 176.846 90.1679 176.103 91.143C175.261 92.2475 174.213 93.624 173.649 95.6838L173.483 96.2476C172.883 98.304 172.312 100.248 172.953 103.123C173.102 103.764 173.072 105.644 173.049 107.017C172.986 110.772 172.949 113.253 174.521 114.852C175.241 115.585 176.196 115.986 177.211 115.986L178.24 115.916L178.916 115.591C179.861 115.14 180.681 114.493 181.417 113.777C181.444 113.837 181.467 113.893 181.49 113.953C182.402 115.989 184.352 117.16 186.847 117.16C189.58 117.16 195.112 115.223 195.49 111.638C195.58 110.692 195.543 109.837 195.497 109.031C195.427 107.866 195.451 107.641 195.673 107.286C195.802 107.187 196.359 107.024 196.728 106.921C197.888 106.586 199.471 106.135 200.937 104.719C202.22 103.445 202.794 102.165 203.255 101.14C203.6 100.37 203.799 99.9492 204.204 99.5313C204.442 99.2792 204.767 99.1134 205.358 98.8314C205.524 101.246 205.643 103.677 205.643 106.138C205.643 161.092 161.092 205.643 106.138 205.643Z" fill="#374151"/>
<path d="M148.027 93.4086C144.378 94.46 143.065 97.2461 142.103 99.2827C141.589 100.377 141.141 101.319 140.405 101.999C139.105 103.213 137.847 103.883 136.388 104.659C134.769 105.522 132.935 106.497 131.038 108.268C130.361 108.895 129.585 109.435 128.846 109.963C126.401 111.698 122.703 114.321 123.787 119.263C124.497 122.364 126.882 124.215 130.162 124.215C132.335 124.215 134.693 123.456 136.978 122.719C138.106 122.358 139.224 121.99 140.242 121.764C146.053 120.494 150.03 118.971 154.382 114.6C154.859 114.125 155.357 113.651 155.861 113.167C159.622 109.585 165.301 104.168 161.079 97.8996C158.239 93.6374 153.208 91.9193 148.027 93.4086ZM151.281 108.364C150.743 108.878 150.209 109.389 149.689 109.906C146.428 113.183 143.698 114.215 138.819 115.283C137.609 115.548 136.275 115.973 134.939 116.404C133.274 116.938 131.393 117.548 130.249 117.578C130.318 117.174 130.846 116.679 132.686 115.373C133.585 114.732 134.61 114.006 135.556 113.124C136.823 111.946 138.063 111.283 139.503 110.517C141.138 109.644 142.995 108.659 144.916 106.862C146.587 105.323 147.426 103.545 148.1 102.115C148.949 100.321 149.211 99.9726 149.864 99.7835C150.504 99.5978 151.128 99.5049 151.718 99.5049C153.347 99.5049 154.641 100.201 155.566 101.591C156.422 102.862 155.46 104.381 151.281 108.364Z" fill="#374151"/>
<path d="M107.538 176.061C106.772 176.061 105.996 176.18 105.194 176.425C100.358 177.984 100.586 182.84 100.706 185.45C100.752 186.409 100.792 187.315 100.703 188.104C100.626 188.824 100.427 189.514 100.251 190.177C99.661 192.406 98.7721 195.769 101.701 198.655C103.081 199.981 104.822 200.685 106.742 200.685C109.592 200.685 112.799 199.036 115.343 196.26C119.237 191.925 119.283 185.59 115.486 180.893C113.714 178.641 111.217 176.061 107.538 176.061ZM110.424 191.802C109.078 193.278 107.552 194.051 106.742 194.051C106.543 194.051 106.444 194.011 106.285 193.875C106.215 193.57 106.49 192.552 106.666 191.875C106.902 190.976 107.174 189.955 107.293 188.844C107.446 187.547 107.383 186.27 107.333 185.139C107.296 184.366 107.247 183.245 107.343 182.714C107.9 182.615 108.553 182.81 110.295 185.026C112.083 187.238 112.129 189.908 110.424 191.802Z" fill="#374151"/>
</svg>
