<svg width="215" height="187" viewBox="0 0 215 187" fill="none" xmlns="http://www.w3.org/2000/svg">
<path d="M81.4535 178.2V151.4C81.4535 143.051 81.4535 138.876 83.5433 135.767C84.9124 133.73 86.882 132.038 89.253 130.862C92.873 129.067 97.7326 129.067 107.452 129.067C117.171 129.067 122.031 129.067 125.651 130.862C128.022 132.038 129.991 133.73 131.36 135.767C133.45 138.876 133.45 143.051 133.45 151.4V178.2" stroke="#374151" stroke-width="8" stroke-linecap="round"/>
<path d="M201.047 182.667H76.2539M13.8572 182.667H39.8558" stroke="#374151" stroke-width="8" stroke-linecap="round"/>
<path d="M180.249 182.666V120.133" stroke="#374151" stroke-width="8" stroke-linecap="round"/>
<path d="M34.6562 182.666V120.133" stroke="#374151" stroke-width="8" stroke-linecap="round"/>
<path d="M107.451 4H60.3648C47.8562 4 41.6018 4 36.5758 6.66838C31.5496 9.33677 28.7526 14.1421 23.1586 23.7528L8.56176 55.4496C5.18932 62.7728 2.23869 71.4042 7.91554 77.5883C11.724 81.7369 17.6276 84.3999 24.2556 84.3999C35.7425 84.3999 45.0545 76.401 45.0545 66.5333C45.0545 76.401 54.3664 84.3999 65.8534 84.3999C77.3403 84.3999 86.6522 76.401 86.6522 66.5333C86.6522 76.401 95.9638 84.3999 107.451 84.3999C118.938 84.3999 128.25 76.401 128.25 66.5333C128.25 76.401 137.562 84.3999 149.049 84.3999C160.536 84.3999 169.848 76.401 169.848 66.5333C169.848 76.401 179.159 84.3999 190.647 84.3999C197.275 84.3999 203.179 81.7369 206.987 77.5883C212.664 71.4042 209.714 62.7728 206.341 55.4496L191.745 23.7528C186.151 14.1421 183.353 9.33677 178.327 6.66838C173.301 4 167.047 4 154.539 4H149.05" stroke="#374151" stroke-width="8" stroke-linecap="round" stroke-linejoin="round"/>
</svg>
