<svg width="231" height="219" viewBox="0 0 231 219" fill="none" xmlns="http://www.w3.org/2000/svg">
<path d="M142.233 23.4699L143.247 24.4797L144.53 23.8456C152.543 19.8854 161.492 18.2204 170.391 19.0344C179.289 19.8484 187.79 23.1098 194.953 28.4584C202.117 33.8071 207.665 41.035 210.984 49.3437C214.303 57.6524 215.264 66.7183 213.76 75.5397L213.397 77.6675L215.546 77.8672C217.574 78.0557 219.542 78.6607 221.326 79.6446C223.11 80.6285 224.673 81.9702 225.917 83.5862C227.161 85.2021 228.058 87.0576 228.554 89.0367C229.05 91.0159 229.133 93.0763 228.799 95.0891L228.798 95.0897C221.254 140.534 202.706 168.727 173.626 180.558L172.38 181.065V182.41V193.731C172.38 199.903 169.931 205.822 165.574 210.186C161.216 214.549 155.306 217 149.145 217H81.8518C75.6904 217 69.7808 214.549 65.4232 210.186C61.0655 205.822 58.6169 199.903 58.6169 193.731V182.41V181.065L57.3706 180.558C28.291 168.727 9.74278 140.534 2.19842 95.0906C1.87511 93.1315 1.94749 91.1273 2.41127 89.1968C2.87512 87.2659 3.72102 85.448 4.8988 83.8506C6.07657 82.2532 7.56224 80.9088 9.26778 79.8968C10.9733 78.8848 12.8641 78.2258 14.8283 77.9586L16.5587 77.7232V75.9769V75.96V75.8084C16.5585 61.2277 20.8709 46.9738 28.9516 34.8451C37.0323 22.7163 48.519 13.2563 61.9623 7.65798C75.4056 2.0597 90.2034 0.573858 104.489 3.3878C118.774 6.20174 131.908 13.1895 142.233 23.4699ZM29.382 75.8084V77.8084H31.382H48.2053H50.2053V75.8084C50.2053 65.1683 54.4263 54.9646 61.939 47.4418C69.4516 39.919 79.6402 35.6933 90.2634 35.6933C100.887 35.6933 111.075 39.919 118.588 47.4418C126.101 54.9646 130.322 65.1683 130.322 75.8084V77.8084H132.322H149.145H151.145V75.8084C151.145 59.6414 144.731 44.1359 133.314 32.7033C121.897 21.2705 106.411 14.8472 90.2634 14.8472C74.1158 14.8472 58.6301 21.2705 47.2128 32.7033C35.7956 44.1359 29.382 59.6414 29.382 75.8084ZM63.0285 75.8084V77.8084H65.0285H115.498H117.498V75.8084C117.498 68.5771 114.63 61.6414 109.522 56.5272C104.415 51.413 97.4875 48.5393 90.2634 48.5393C83.0394 48.5393 76.1118 51.413 71.0045 56.5272C65.8973 61.6414 63.0285 68.5771 63.0285 75.8084ZM178.8 74.8165L177.092 77.8084H180.537H198.555H200.109L200.493 76.3028C201.838 71.0297 201.963 65.5188 200.859 60.1899C199.756 54.8609 197.451 49.8545 194.122 45.552C190.793 41.2495 186.527 37.7645 181.649 35.3627C176.771 32.961 171.409 31.7059 165.973 31.6933H165.968C161.694 31.6933 157.627 32.4428 153.845 33.8184L151.527 34.6612L152.83 36.7547C155.728 41.411 158.121 46.4319 159.958 51.7028L160.558 53.4254L162.329 52.9857C165.152 52.2845 168.119 52.4288 170.862 53.401C173.604 54.3732 176.002 56.1305 177.756 58.4553C179.511 60.7801 180.545 63.57 180.731 66.4788C180.917 69.3875 180.245 72.2867 178.8 74.8165ZM159.557 185.308V183.308H157.557H73.4402H71.4402V185.308V193.731C71.4402 196.494 72.5364 199.145 74.4887 201.1C76.4411 203.055 79.0896 204.154 81.8518 204.154H149.145C151.907 204.154 154.556 203.055 156.508 201.1C158.46 199.145 159.557 196.494 159.557 193.731V185.308ZM66.9054 170.366L67.2043 170.462H67.5184H163.478H163.792L164.091 170.366C191.802 161.443 208.967 136.247 216.157 92.9823L216.543 90.6545H214.184H16.813H14.4532L14.8401 92.9823C22.0297 136.247 39.1951 161.443 66.9054 170.366Z" fill="#374151" stroke="#FFFEEE" stroke-width="4"/>
</svg>
