<svg width="42" height="34" viewBox="0 0 42 34" fill="none" xmlns="http://www.w3.org/2000/svg">
<path fill-rule="evenodd" clip-rule="evenodd" d="M13.209 34C29.0577 34 37.7265 21.0714 37.7265 9.86124C37.7265 9.49321 37.7265 9.12796 37.7013 8.76407C39.3876 7.56489 40.8429 6.07597 42 4.37232C40.4292 5.05875 38.7597 5.50891 37.0524 5.70738C38.85 4.64674 40.1961 2.9804 40.8408 1.01417C39.1482 2.00245 37.2981 2.69994 35.3682 3.07418C32.1048 -0.341408 26.6469 -0.506895 23.1756 2.70606C20.9391 4.77773 19.9878 7.86657 20.6829 10.8128C13.755 10.4696 7.2996 7.24842 2.9232 1.94933C0.6363 5.82595 1.806 10.7834 5.5923 13.2727C4.221 13.2334 2.8791 12.8699 1.68 12.2125V12.3201C1.6821 16.358 4.5738 19.8349 8.5932 20.635C7.3248 20.9762 5.9934 21.0256 4.704 20.7796C5.8317 24.2365 9.0678 26.6043 12.7533 26.6725C9.702 29.0337 5.9325 30.3157 2.0517 30.3116C1.3671 30.3096 0.6825 30.2702 0 30.1896C3.9417 32.6789 8.526 34 13.209 33.9938" fill="#FF6622"/>
</svg>
