<svg width="347" height="100" viewBox="0 0 347 100" fill="none" xmlns="http://www.w3.org/2000/svg">
<rect x="346.089" y="66.2075" width="28.6812" height="32.8855" transform="rotate(180 346.089 66.2075)" fill="#FF6622"/>
<rect x="346.178" y="99.5298" width="28.6812" height="32.8855" transform="rotate(180 346.178 99.5298)" fill="#FFFEEE"/>
<rect x="317.177" y="32.8853" width="28.6812" height="32.8855" transform="rotate(180 317.177 32.8853)" fill="#FF6622"/>
<rect x="288.266" y="66.2075" width="28.6812" height="32.8855" transform="rotate(180 288.266 66.2075)" fill="#FF6622"/>
<rect x="288.355" y="99.5298" width="28.6812" height="32.8855" transform="rotate(180 288.355 99.5298)" fill="#FFFEEE"/>
<rect x="259.356" y="32.8853" width="28.6812" height="32.8855" transform="rotate(180 259.356 32.8853)" fill="#FF6622"/>
<rect x="230.444" y="66.2075" width="28.6812" height="32.8855" transform="rotate(180 230.444 66.2075)" fill="#FF6622"/>
<rect x="230.681" y="99.5298" width="28.6812" height="32.8855" transform="rotate(180 230.681 99.5298)" fill="#FFFEEE"/>
<rect x="201.533" y="32.8853" width="28.6812" height="32.8855" transform="rotate(180 201.533 32.8853)" fill="#FF6622"/>
<rect x="172.622" y="66.2075" width="28.6812" height="32.8855" transform="rotate(180 172.622 66.2075)" fill="#FF6622"/>
<rect x="172.711" y="99.5298" width="28.6812" height="32.8855" transform="rotate(180 172.711 99.5298)" fill="#FFFEEE"/>
<rect x="144.399" y="32.8853" width="28.6812" height="32.8855" transform="rotate(180 144.399 32.8853)" fill="#FF6622"/>
<rect x="115.415" y="66.2075" width="28.6812" height="32.8855" transform="rotate(180 115.415 66.2075)" fill="#FF6622"/>
<rect x="115.504" y="99.5298" width="28.6812" height="32.8855" transform="rotate(180 115.504 99.5298)" fill="#FFFEEE"/>
<rect x="86.5034" y="32.8853" width="28.6812" height="32.8855" transform="rotate(180 86.5034 32.8853)" fill="#FF6622"/>
<rect x="57.592" y="66.2075" width="28.6812" height="32.8855" transform="rotate(180 57.592 66.2075)" fill="#FF6622"/>
<rect x="57.6812" y="99.5298" width="28.6812" height="32.8855" transform="rotate(180 57.6812 99.5298)" fill="#FFFEEE"/>
<rect x="28.6812" y="32.8853" width="28.6812" height="32.8855" transform="rotate(180 28.6812 32.8853)" fill="#FF6622"/>
</svg>
