<svg width="1929" height="87" viewBox="0 0 1929 87" fill="none" xmlns="http://www.w3.org/2000/svg">
<rect width="41.666" height="41.666" transform="matrix(1 0 0 -1 754 42.666)" fill="#FF6622"/>
<rect width="41.666" height="41.666" transform="matrix(1 0 0 -1 796 83.666)" fill="#FF6622"/>
<rect width="41.666" height="41.666" transform="matrix(1 0 0 -1 838 42.666)" fill="#FF6622"/>
<rect width="41.666" height="41.666" transform="matrix(1 0 0 -1 880 83.666)" fill="#FF6622"/>
<rect width="41.666" height="41.666" transform="matrix(1 0 0 -1 922 42.666)" fill="#FF6622"/>
<rect width="41.666" height="41.666" transform="matrix(1 0 0 -1 964 84.666)" fill="#FF6622"/>
<rect width="41.666" height="41.666" transform="matrix(1 0 0 -1 1006 42.666)" fill="#FF6622"/>
<rect width="41.666" height="41.666" transform="matrix(1 0 0 -1 1048 83.666)" fill="#FF6622"/>
<rect width="41.666" height="41.666" transform="matrix(1 0 0 -1 1089 42.666)" fill="#FF6622"/>
<rect x="376.666" y="42.666" width="41.666" height="41.666" transform="rotate(180 376.666 42.666)" fill="#FF6622"/>
<rect x="334.666" y="83.666" width="41.666" height="41.666" transform="rotate(180 334.666 83.666)" fill="#FF6622"/>
<rect x="292.666" y="42.666" width="41.666" height="41.666" transform="rotate(180 292.666 42.666)" fill="#FF6622"/>
<rect x="250.666" y="83.666" width="41.666" height="41.666" transform="rotate(180 250.666 83.666)" fill="#FF6622"/>
<rect x="208.666" y="42.666" width="41.666" height="41.666" transform="rotate(180 208.666 42.666)" fill="#FF6622"/>
<rect x="166.666" y="84.666" width="41.666" height="41.666" transform="rotate(180 166.666 84.666)" fill="#FF6622"/>
<rect x="124.666" y="42.666" width="41.666" height="41.666" transform="rotate(180 124.666 42.666)" fill="#FF6622"/>
<rect x="82.666" y="83.666" width="41.666" height="41.666" transform="rotate(180 82.666 83.666)" fill="#FF6622"/>
<rect x="41.666" y="42.666" width="41.666" height="41.666" transform="rotate(180 41.666 42.666)" fill="#FF6622"/>
<rect width="41.666" height="41.666" transform="matrix(-1 0 0 1 1507.67 43)" fill="#FF6622"/>
<rect width="41.666" height="41.666" transform="matrix(-1 0 0 1 1465.67 2)" fill="#FF6622"/>
<rect width="41.666" height="41.666" transform="matrix(-1 0 0 1 1423.67 43)" fill="#FF6622"/>
<rect width="41.666" height="41.666" transform="matrix(-1 0 0 1 1381.67 2)" fill="#FF6622"/>
<rect width="41.666" height="41.666" transform="matrix(-1 0 0 1 1339.67 43)" fill="#FF6622"/>
<rect width="41.666" height="41.666" transform="matrix(-1 0 0 1 1297.67 1)" fill="#FF6622"/>
<rect width="41.666" height="41.666" transform="matrix(-1 0 0 1 1255.67 43)" fill="#FF6622"/>
<rect width="41.666" height="41.666" transform="matrix(-1 0 0 1 1213.67 2)" fill="#FF6622"/>
<rect width="41.666" height="41.666" transform="matrix(-1 0 0 1 1172.67 43)" fill="#FF6622"/>
<rect width="41.666" height="41.666" transform="matrix(-1 0 0 1 753.666 42)" fill="#FF6622"/>
<rect width="41.666" height="41.666" transform="matrix(-1 0 0 1 711.666 1)" fill="#FF6622"/>
<rect width="41.666" height="41.666" transform="matrix(-1 0 0 1 669.666 42)" fill="#FF6622"/>
<rect width="41.666" height="41.666" transform="matrix(-1 0 0 1 627.666 1)" fill="#FF6622"/>
<rect width="41.666" height="41.666" transform="matrix(-1 0 0 1 585.666 42)" fill="#FF6622"/>
<rect width="41.666" height="41.666" transform="matrix(-1 0 0 1 543.666 0)" fill="#FF6622"/>
<rect width="41.666" height="41.666" transform="matrix(-1 0 0 1 501.666 42)" fill="#FF6622"/>
<rect width="41.666" height="41.666" transform="matrix(-1 0 0 1 459.666 1)" fill="#FF6622"/>
<rect width="41.666" height="41.666" transform="matrix(-1 0 0 1 418.666 42)" fill="#FF6622"/>
<rect x="1884.67" y="43.332" width="41.666" height="41.666" transform="rotate(180 1884.67 43.332)" fill="#FF6622"/>
<rect x="1928.67" y="86.666" width="41.666" height="41.666" transform="rotate(180 1928.67 86.666)" fill="#FF6622"/>
<rect x="1842.67" y="84.332" width="41.666" height="41.666" transform="rotate(180 1842.67 84.332)" fill="#FF6622"/>
<rect x="1800.67" y="43.332" width="41.666" height="41.666" transform="rotate(180 1800.67 43.332)" fill="#FF6622"/>
<rect x="1758.67" y="84.332" width="41.666" height="41.666" transform="rotate(180 1758.67 84.332)" fill="#FF6622"/>
<rect x="1716.67" y="43.332" width="41.666" height="41.666" transform="rotate(180 1716.67 43.332)" fill="#FF6622"/>
<rect x="1674.67" y="85.332" width="41.666" height="41.666" transform="rotate(180 1674.67 85.332)" fill="#FF6622"/>
<rect x="1632.67" y="43.332" width="41.666" height="41.666" transform="rotate(180 1632.67 43.332)" fill="#FF6622"/>
<rect x="1590.67" y="84.332" width="41.666" height="41.666" transform="rotate(180 1590.67 84.332)" fill="#FF6622"/>
<rect x="1549.67" y="43.332" width="41.666" height="41.666" transform="rotate(180 1549.67 43.332)" fill="#FF6622"/>
</svg>
